<svg id="kity_svg_6" xmlns="http://www.w3.org/2000/svg" xmlns:xlink="http://www.w3.org/1999/xlink" version="1.1" width="1415" height="1041" style="background: black; display: inline;" viewBox="0 0 1415 1041"><defs id="kity_defs_7"><linearGradient id="kity_linearGradient_17" x1="0" y1="0" x2="0" y2="1"><stop id="kity_stop_18" offset="0" stop-color="rgb(255, 255, 255)"></stop><stop id="kity_stop_19" offset="1" stop-color="rgb(204, 204, 204)"></stop></linearGradient><marker id="kity_marker_4" orient="auto" refX="6" refY="0" viewBox="-7 -7 14 14" markerWidth="7" markerHeight="7" markerUnits="userSpaceOnUse"><path id="kity_path_5" fill="rgb(115, 191, 118)" stroke="none" d="M6,0A6,6,0,1,1,-6,0A6,6,0,1,1,6,0"></path></marker><marker id="kity_marker_2" orient="auto" refX="6" refY="0" viewBox="-7 -7 14 14" markerWidth="7" markerHeight="7" markerUnits="userSpaceOnUse"><path id="kity_path_3" fill="#999" stroke="none" d="M6,0A6,6,0,1,1,-6,0A6,6,0,1,1,6,0"></path></marker></defs><g id="kity_g_8"><g id="minder1" text-rendering="geometricPrecision"><g id="minder_connect_group1"><path id="kity_path_31" fill="none" stroke="#999" stroke-width="1" d="M674.5,674.5A153,526,0,0,1,827.5,148.5"></path><path id="kity_path_41" fill="none" stroke="#999" stroke-width="1" d="M674.5,674.5A313,302,0,0,1,987.5,372.5"></path><path id="kity_path_55" fill="none" stroke="#999" stroke-width="1" d="M674.5,674.5A146,102,0,0,1,820.5,572.5"></path><path id="kity_path_67" fill="none" stroke="#999" stroke-width="1" d="M674.5,674.5A196,244,0,0,0,870.5,918.5"></path><path id="kity_path_75" fill="none" stroke="#999" stroke-width="1" d="M674.5,674.5A509,130,0,0,0,1183.5,804.5"></path><path id="kity_path_87" fill="none" stroke="#999" stroke-width="1" d="M674.5,674.5A355,604,0,0,0,319.5,70.5"></path><path id="kity_path_89" fill="none" stroke="#999" stroke-width="1" d="M674.5,674.5A247,421,0,0,0,427.5,253.5"></path><path id="kity_path_97" fill="none" stroke="#999" stroke-width="1" d="M674.5,674.5A397,268,0,0,0,277.5,406.5"></path><path id="kity_path_105" fill="none" stroke="#999" stroke-width="1" d="M674.5,674.5A197,133,0,0,0,477.5,541.5"></path><path id="kity_path_113" fill="none" stroke="#999" stroke-width="1" d="M674.5,674.5A445,14,0,0,1,229.5,688.5"></path><path id="kity_path_123" fill="none" stroke="#999" stroke-width="1" d="M674.5,674.5A198,150,0,0,1,476.5,824.5"></path><path id="kity_path_131" fill="none" stroke="#999" stroke-width="1" d="M674.5,674.5A446,290,0,0,1,228.5,964.5"></path><path id="kity_path_526" fill="none" stroke="#999" stroke-width="1" d="M199.5,406.5C184.5,406.5,184.5,352.5,169.5,352.5L79.5,352.5"></path><path id="kity_path_527" fill="none" stroke="#999" stroke-width="1" d="M199.5,406.5C184.5,406.5,184.5,426.5,169.5,426.5L83.5,426.5"></path><path id="kity_path_528" fill="none" stroke="#999" stroke-width="1" d="M199.5,406.5C184.5,406.5,184.5,500.5,169.5,500.5L83.5,500.5"></path><path id="kity_path_561" fill="none" stroke="#999" stroke-width="1" d="M165.5,688.5C150.5,688.5,150.5,597.5,135.5,597.5L83.5,597.5"></path><path id="kity_path_562" fill="none" stroke="#999" stroke-width="1" d="M165.5,688.5C150.5,688.5,150.5,671.5,135.5,671.5L71.5,671.5"></path><path id="kity_path_563" fill="none" stroke="#999" stroke-width="1" d="M165.5,688.5C150.5,688.5,150.5,745.5,135.5,745.5L49.5,745.5"></path><path id="kity_path_564" fill="none" stroke="#999" stroke-width="1" d="M165.5,688.5C150.5,688.5,150.5,819.5,135.5,819.5L63.5,819.5"></path><path id="kity_path_565" fill="none" stroke="#999" stroke-width="1" d="M427.5,541.5C412.5,541.5,412.5,487.5,397.5,487.5L311.5,487.5"></path><path id="kity_path_566" fill="none" stroke="#999" stroke-width="1" d="M427.5,541.5C412.5,541.5,412.5,561.5,397.5,561.5L297.5,561.5"></path><path id="kity_path_567" fill="none" stroke="#999" stroke-width="1" d="M427.5,541.5C412.5,541.5,412.5,635.5,397.5,635.5L297.5,635.5"></path><path id="kity_path_568" fill="none" stroke="#999" stroke-width="1" d="M398.5,824.5C383.5,824.5,383.5,770.5,368.5,770.5L307.5,770.5"></path><path id="kity_path_569" fill="none" stroke="#999" stroke-width="1" d="M398.5,824.5C383.5,824.5,383.5,844.5,368.5,844.5L273.5,844.5"></path><path id="kity_path_570" fill="none" stroke="#999" stroke-width="1" d="M398.5,824.5C383.5,824.5,383.5,918.5,368.5,918.5L289.5,918.5"></path><path id="kity_path_571" fill="none" stroke="#999" stroke-width="1" d="M178.5,964.5C163.5,964.5,163.5,947.5,148.5,947.5L20.5,947.5"></path><path id="kity_path_572" fill="none" stroke="#999" stroke-width="1" d="M178.5,964.5C163.5,964.5,163.5,1021.5,148.5,1021.5L73.5,1021.5"></path><path id="kity_path_573" fill="none" stroke="#999" stroke-width="1" d="M349.5,253.5C334.5,253.5,334.5,199.5,319.5,199.5L261.5,199.5"></path><path id="kity_path_574" fill="none" stroke="#999" stroke-width="1" d="M349.5,253.5C334.5,253.5,334.5,273.5,319.5,273.5L261.5,273.5"></path><path id="kity_path_575" fill="none" stroke="#999" stroke-width="1" d="M349.5,253.5C334.5,253.5,334.5,347.5,319.5,347.5L233.5,347.5"></path><path id="kity_path_582" fill="none" stroke="#999" stroke-width="1" d="M1065.5,372.5C1080.5,372.5,1080.5,207.5,1095.5,207.5L1160.5,207.5"></path><path id="kity_path_583" fill="none" stroke="#999" stroke-width="1" d="M1065.5,372.5C1080.5,372.5,1080.5,281.5,1095.5,281.5L1170.5,281.5"></path><path id="kity_path_584" fill="none" stroke="#999" stroke-width="1" d="M1065.5,372.5C1080.5,372.5,1080.5,355.5,1095.5,355.5L1155.5,355.5"></path><path id="kity_path_585" fill="none" stroke="#999" stroke-width="1" d="M1065.5,372.5C1080.5,372.5,1080.5,429.5,1095.5,429.5L1161.5,429.5"></path><path id="kity_path_586" fill="none" stroke="#999" stroke-width="1" d="M1065.5,372.5C1080.5,372.5,1080.5,503.5,1095.5,503.5L1153.5,503.5"></path><path id="kity_path_587" fill="none" stroke="#999" stroke-width="1" d="M1065.5,372.5C1080.5,372.5,1080.5,577.5,1095.5,577.5L1137.5,577.5"></path><path id="kity_path_612" fill="none" stroke="#999" stroke-width="1" d="M870.5,572.5C885.5,572.5,885.5,444.5,900.5,444.5L983.5,444.5"></path><path id="kity_path_613" fill="none" stroke="#999" stroke-width="1" d="M870.5,572.5C885.5,572.5,885.5,518.5,900.5,518.5L996.5,518.5"></path><path id="kity_path_614" fill="none" stroke="#999" stroke-width="1" d="M870.5,572.5C885.5,572.5,885.5,592.5,900.5,592.5L974.5,592.5"></path><path id="kity_path_615" fill="none" stroke="#999" stroke-width="1" d="M870.5,572.5C885.5,572.5,885.5,666.5,900.5,666.5L970.5,666.5"></path><path id="kity_path_616" fill="none" stroke="#999" stroke-width="1" d="M870.5,572.5C885.5,572.5,885.5,740.5,900.5,740.5L975.5,740.5"></path><path id="kity_path_650" fill="none" stroke="#999" stroke-width="1" d="M1247.5,804.5C1262.5,804.5,1262.5,676.5,1277.5,676.5L1363.5,676.5"></path><path id="kity_path_651" fill="none" stroke="#999" stroke-width="1" d="M1247.5,804.5C1262.5,804.5,1262.5,750.5,1277.5,750.5L1386.5,750.5"></path><path id="kity_path_652" fill="none" stroke="#999" stroke-width="1" d="M1247.5,804.5C1262.5,804.5,1262.5,824.5,1277.5,824.5L1395.5,824.5"></path><path id="kity_path_653" fill="none" stroke="#999" stroke-width="1" d="M1247.5,804.5C1262.5,804.5,1262.5,898.5,1277.5,898.5L1352.5,898.5"></path><path id="kity_path_654" fill="none" stroke="#999" stroke-width="1" d="M1247.5,804.5C1262.5,804.5,1262.5,972.5,1277.5,972.5L1377.5,972.5"></path><path id="kity_path_659" fill="none" stroke="#999" stroke-width="1" d="M877.5,148.5C892.5,148.5,892.5,57.5,907.5,57.5L972.5,57.5"></path><path id="kity_path_660" fill="none" stroke="#999" stroke-width="1" d="M877.5,148.5C892.5,148.5,892.5,131.5,907.5,131.5L962.5,131.5"></path><path id="kity_path_661" fill="none" stroke="#999" stroke-width="1" d="M877.5,148.5C892.5,148.5,892.5,205.5,907.5,205.5L1008.5,205.5"></path><path id="kity_path_662" fill="none" stroke="#999" stroke-width="1" d="M877.5,148.5C892.5,148.5,892.5,279.5,907.5,279.5L963.5,279.5"></path><path id="kity_path_663" fill="none" stroke="#999" stroke-width="1" d="M948.5,918.5C963.5,918.5,963.5,864.5,978.5,864.5L1078.5,864.5"></path><path id="kity_path_664" fill="none" stroke="#999" stroke-width="1" d="M948.5,918.5C963.5,918.5,963.5,938.5,978.5,938.5L1064.5,938.5"></path><path id="kity_path_665" fill="none" stroke="#999" stroke-width="1" d="M948.5,918.5C963.5,918.5,963.5,1012.5,978.5,1012.5L1064.5,1012.5"></path></g><g id="minder_node1"><path id="kity_path_466" fill="rgba(0, 0, 0, .25)" stroke="none" d="M700.5,609h0a71,71,0,0,1,71,71v0a71,71,0,0,1,-71,71h0a71,71,0,0,1,-71,-71v0a71,71,0,0,1,71,-71z" display="none"></path><path id="node_outline1" fill="black" stroke="none" d="M636.5,657.5h76v34h-76z" stroke-width="3"></path><g id="node_text1" fill="#999"><text id="kity_text_22" text-rendering="inherit" font-size="14" dy=".8em" y="667.5" x="646.5">前端技能</text></g></g><g id="kity_g_14" display="none"><path id="kity_path_15" fill="rgba(0, 255, 0, .5)" stroke="none" d="M349.5,275.5h76v20h-76z"></path><path id="kity_path_16" fill="none" stroke="#0f0" d="M349.5,275.5L425.5,275.5" stroke-width="1"></path></g><g id="minder_node2" opacity="1"><path id="kity_path_454" fill="rgba(0, 0, 0, .25)" stroke="none" d="M858.5,122h0a31,31,0,0,1,31,31v0a31,31,0,0,1,-31,31h0a31,31,0,0,1,-31,-31v0a31,31,0,0,1,31,-31z" display="none"></path><g id="node_expander5" style="cursor: pointer;"><path id="kity_path_308" fill="white" stroke="gray" d="M829.5,148.5A6,6,0,1,1,817.5,148.5A6,6,0,1,1,829.5,148.5"></path><path id="kity_path_309" fill="none" stroke="gray" d="M819,148.5L828,148.5"></path></g><path id="node_outline6" fill="black" stroke="none" d="M829.5,131.5h48v34h-48z" stroke-width="1"></path><g id="node_text6" fill="#999"><text id="kity_text_145" text-rendering="inherit" font-size="14" dy=".8em" y="141.5" x="839.5">语言</text></g></g><g id="minder_node7" opacity="1"><path id="kity_path_455" fill="rgba(0, 0, 0, .25)" stroke="none" d="M1033.5,333h0a44,44,0,0,1,44,44v0a44,44,0,0,1,-44,44h0a44,44,0,0,1,-44,-44v0a44,44,0,0,1,44,-44z" display="none"></path><g id="node_expander12" style="cursor: pointer;"><path id="kity_path_329" fill="white" stroke="gray" d="M989.5,372.5A6,6,0,1,1,977.5,372.5A6,6,0,1,1,989.5,372.5"></path><path id="kity_path_330" fill="none" stroke="gray" d="M979,372.5L988,372.5"></path></g><path id="node_outline13" fill="black" stroke="none" d="M989.5,355.5h76v34h-76z" stroke-width="1"></path><g id="node_text13" fill="#999"><text id="kity_text_159" text-rendering="inherit" font-size="14" dy=".8em" y="365.5" x="999.5">行业标准</text></g></g><g id="minder_node14" opacity="1"><path id="kity_path_456" fill="rgba(0, 0, 0, .25)" stroke="none" d="M851.5,546h0a31,31,0,0,1,31,31v0a31,31,0,0,1,-31,31h0a31,31,0,0,1,-31,-31v0a31,31,0,0,1,31,-31z" display="none"></path><g id="node_expander18" style="cursor: pointer;"><path id="kity_path_347" fill="white" stroke="gray" d="M822.5,572.5A6,6,0,1,1,810.5,572.5A6,6,0,1,1,822.5,572.5"></path><path id="kity_path_348" fill="none" stroke="gray" d="M812,572.5L821,572.5"></path></g><path id="node_outline19" fill="black" stroke="none" d="M822.5,555.5h48v34h-48z" stroke-width="1"></path><g id="node_text19" fill="#999"><text id="kity_text_171" text-rendering="inherit" font-size="14" dy=".8em" y="565.5" x="832.5">框架</text></g></g><g id="minder_node20" opacity="1"><path id="kity_path_457" fill="rgba(0, 0, 0, .25)" stroke="none" d="M916.5,879h0a44,44,0,0,1,44,44v0a44,44,0,0,1,-44,44h0a44,44,0,0,1,-44,-44v0a44,44,0,0,1,44,-44z" display="none"></path><g id="node_expander22" style="cursor: pointer;"><path id="kity_path_359" fill="white" stroke="gray" d="M872.5,918.5A6,6,0,1,1,860.5,918.5A6,6,0,1,1,872.5,918.5"></path><path id="kity_path_360" fill="none" stroke="gray" d="M862,918.5L871,918.5"></path></g><path id="node_outline23" fill="#999" stroke="none" d="M872.5,901.5h76v34h-76z" stroke-width="1"></path><g id="node_text23" fill="black"><text id="kity_text_179" text-rendering="inherit" font-size="14" dy=".8em" y="911.5" x="882.5">编程思想</text></g></g><g id="minder_node24" opacity="1"><path id="kity_path_458" fill="rgba(0, 0, 0, .25)" stroke="none" d="M1222,772h0a37,37,0,0,1,37,37v0a37,37,0,0,1,-37,37h0a37,37,0,0,1,-37,-37v0a37,37,0,0,1,37,-37z" display="none"></path><g id="node_expander28" style="cursor: pointer;"><path id="kity_path_377" fill="white" stroke="gray" d="M1185.5,804.5A6,6,0,1,1,1173.5,804.5A6,6,0,1,1,1185.5,804.5"></path><path id="kity_path_378" fill="none" stroke="gray" d="M1175,804.5L1184,804.5"></path></g><path id="node_outline29" fill="black" stroke="none" d="M1185.5,787.5h62v34h-62z" stroke-width="1"></path><g id="node_text29" fill="#999"><text id="kity_text_191" text-rendering="inherit" font-size="14" dy=".8em" y="797.5" x="1195.5">兼容性</text></g></g><g id="minder_node30" opacity="1"><path id="kity_path_459" fill="rgba(0, 0, 0, .25)" stroke="none" d="M283,28h0a47,47,0,0,1,47,47v0a47,47,0,0,1,-47,47h0a47,47,0,0,1,-47,-47v0a47,47,0,0,1,47,-47z" display="none"></path><g id="node_expander29" style="cursor: pointer;" display="none"><path id="kity_path_380" fill="white" stroke="gray" d="M235.5,70.5A6,6,0,1,1,223.5,70.5A6,6,0,1,1,235.5,70.5"></path><path id="kity_path_381" fill="none" stroke="gray"></path></g><path id="node_outline30" fill="black" stroke="none" d="M235.5,53.5h82v34h-82z" stroke-width="1"></path><g id="node_text30" fill="#999"><text id="kity_text_193" text-rendering="inherit" font-size="14" dy=".8em" y="63.5" x="245.5">交互/设计</text></g></g><g id="minder_node31" opacity="1"><path id="kity_path_460" fill="rgba(0, 0, 0, .25)" stroke="none" d="M393.5,214h0a44,44,0,0,1,44,44v0a44,44,0,0,1,-44,44h0a44,44,0,0,1,-44,-44v0a44,44,0,0,1,44,-44z" display="none"></path><g id="node_expander33" style="cursor: pointer;"><path id="kity_path_392" fill="white" stroke="gray" d="M437.5,253.5A6,6,0,1,1,425.5,253.5A6,6,0,1,1,437.5,253.5"></path><path id="kity_path_393" fill="none" stroke="gray" d="M427,253.5L436,253.5"></path></g><path id="node_outline34" fill="black" stroke="none" d="M349.5,236.5h76v34h-76z" stroke-width="1"></path><g id="node_text34" fill="#999"><text id="kity_text_201" text-rendering="inherit" font-size="14" dy=".8em" y="246.5" x="359.5">通用技能</text></g></g><g id="minder_node35" opacity="1"><path id="kity_path_461" fill="rgba(0, 0, 0, .25)" stroke="none" d="M243.5,367h0a44,44,0,0,1,44,44v0a44,44,0,0,1,-44,44h0a44,44,0,0,1,-44,-44v0a44,44,0,0,1,44,-44z" display="none"></path><g id="node_expander37" style="cursor: pointer;"><path id="kity_path_404" fill="white" stroke="gray" d="M287.5,406.5A6,6,0,1,1,275.5,406.5A6,6,0,1,1,287.5,406.5"></path><path id="kity_path_405" fill="none" stroke="gray" d="M277,406.5L286,406.5"></path></g><path id="node_outline38" fill="black" stroke="none" d="M199.5,389.5h76v34h-76z" stroke-width="1"></path><g id="node_text38" fill="#999"><text id="kity_text_209" text-rendering="inherit" font-size="14" dy=".8em" y="399.5" x="209.5">团队协作</text></g></g><g id="minder_node39" opacity="1"><path id="kity_path_462" fill="rgba(0, 0, 0, .25)" stroke="none" d="M456.5,515h0a31,31,0,0,1,31,31v0a31,31,0,0,1,-31,31h0a31,31,0,0,1,-31,-31v0a31,31,0,0,1,31,-31z" display="none"></path><g id="node_expander41" style="cursor: pointer;"><path id="kity_path_416" fill="white" stroke="gray" d="M487.5,541.5A6,6,0,1,1,475.5,541.5A6,6,0,1,1,487.5,541.5"></path><path id="kity_path_417" fill="none" stroke="gray" d="M477,541.5L486,541.5"></path></g><path id="node_outline42" fill="black" stroke="none" d="M427.5,524.5h48v34h-48z" stroke-width="1"></path><g id="node_text42" fill="#999"><text id="kity_text_217" text-rendering="inherit" font-size="14" dy=".8em" y="534.5" x="437.5">性能</text></g></g><g id="minder_node43" opacity="1"><path id="kity_path_463" fill="rgba(0, 0, 0, .25)" stroke="none" d="M202,656h0a37,37,0,0,1,37,37v0a37,37,0,0,1,-37,37h0a37,37,0,0,1,-37,-37v0a37,37,0,0,1,37,-37z" display="none"></path><g id="node_expander46" style="cursor: pointer;"><path id="kity_path_431" fill="white" stroke="gray" d="M239.5,688.5A6,6,0,1,1,227.5,688.5A6,6,0,1,1,239.5,688.5"></path><path id="kity_path_432" fill="none" stroke="gray" d="M229,688.5L238,688.5"></path></g><path id="node_outline47" fill="black" stroke="none" d="M165.5,671.5h62v34h-62z" stroke-width="1"></path><g id="node_text47" fill="#999"><text id="kity_text_227" text-rendering="inherit" font-size="14" dy=".8em" y="681.5" x="175.5">安全性</text></g></g><g id="minder_node48" opacity="1"><path id="kity_path_464" fill="rgba(0, 0, 0, .25)" stroke="none" d="M442.5,785h0a44,44,0,0,1,44,44v0a44,44,0,0,1,-44,44h0a44,44,0,0,1,-44,-44v0a44,44,0,0,1,44,-44z" display="none"></path><g id="node_expander50" style="cursor: pointer;"><path id="kity_path_443" fill="white" stroke="gray" d="M486.5,824.5A6,6,0,1,1,474.5,824.5A6,6,0,1,1,486.5,824.5"></path><path id="kity_path_444" fill="none" stroke="gray" d="M476,824.5L485,824.5"></path></g><path id="node_outline51" fill="black" stroke="none" d="M398.5,807.5h76v34h-76z" stroke-width="1"></path><g id="node_text51" fill="#999"><text id="kity_text_235" text-rendering="inherit" font-size="14" dy=".8em" y="817.5" x="408.5">前端工程</text></g></g><g id="minder_node52" opacity="1"><path id="kity_path_465" fill="rgba(0, 0, 0, .25)" stroke="none" d="M207.5,938h0a31,31,0,0,1,31,31v0a31,31,0,0,1,-31,31h0a31,31,0,0,1,-31,-31v0a31,31,0,0,1,31,-31z" display="none"></path><g id="node_expander53" style="cursor: pointer;"><path id="kity_path_452" fill="white" stroke="gray" d="M238.5,964.5A6,6,0,1,1,226.5,964.5A6,6,0,1,1,238.5,964.5"></path><path id="kity_path_453" fill="none" stroke="gray" d="M228,964.5L237,964.5"></path></g><path id="node_outline54" fill="black" stroke="none" d="M178.5,947.5h48v34h-48z" stroke-width="1"></path><g id="node_text54" fill="#999"><text id="kity_text_241" text-rendering="inherit" font-size="14" dy=".8em" y="957.5" x="188.5">调试</text></g></g><g id="minder_node36"><path id="kity_path_493" fill="rgba(0, 0, 0, .25)" stroke="none" d="M121.5,303h0a35,35,0,0,1,35,35v0a35,35,0,0,1,-35,35h0a35,35,0,0,1,-35,-35v0a35,35,0,0,1,35,-35z" display="none"></path><g id="node_expander34" style="cursor: pointer;" display="none"><path id="kity_path_395" fill="white" stroke="gray" d="M171.5,332.5A6,6,0,1,1,159.5,332.5A6,6,0,1,1,171.5,332.5"></path><path id="kity_path_396" fill="none" stroke="gray"></path></g><path id="node_outline35" fill="black" stroke="none" d="M79.5,315.5h80v34h-80z"></path><g id="node_text35" fill="#999"><text id="kity_text_203" text-rendering="inherit" font-size="14" dy=".8em" y="325.5" x="89.5">Git / SVN</text></g></g><g id="minder_node37"><path id="kity_path_494" fill="rgba(0, 0, 0, .25)" stroke="none" d="M123.5,379h0a33,33,0,0,1,33,33v0a33,33,0,0,1,-33,33h0a33,33,0,0,1,-33,-33v0a33,33,0,0,1,33,-33z" display="none"></path><g id="node_expander35" style="cursor: pointer;" display="none"><path id="kity_path_398" fill="white" stroke="gray" d="M171.5,406.5A6,6,0,1,1,159.5,406.5A6,6,0,1,1,171.5,406.5"></path><path id="kity_path_399" fill="none" stroke="gray"></path></g><path id="node_outline36" fill="black" stroke="none" d="M83.5,389.5h76v34h-76z"></path><g id="node_text36" fill="#999"><text id="kity_text_205" text-rendering="inherit" font-size="14" dy=".8em" y="399.5" x="93.5">编码规范</text></g></g><g id="minder_node38"><path id="kity_path_495" fill="rgba(0, 0, 0, .25)" stroke="none" d="M123.5,453h0a33,33,0,0,1,33,33v0a33,33,0,0,1,-33,33h0a33,33,0,0,1,-33,-33v0a33,33,0,0,1,33,-33z" display="none"></path><g id="node_expander36" style="cursor: pointer;" display="none"><path id="kity_path_401" fill="white" stroke="gray" d="M171.5,480.5A6,6,0,1,1,159.5,480.5A6,6,0,1,1,171.5,480.5"></path><path id="kity_path_402" fill="none" stroke="gray"></path></g><path id="node_outline37" fill="black" stroke="none" d="M83.5,463.5h76v34h-76z"></path><g id="node_text37" fill="#999"><text id="kity_text_207" text-rendering="inherit" font-size="14" dy=".8em" y="473.5" x="93.5">文档管理</text></g></g><g id="minder_node44"><path id="kity_path_499" fill="rgba(0, 0, 0, .25)" stroke="none" d="M108,564h0a19,19,0,0,1,19,19v0a19,19,0,0,1,-19,19h0a19,19,0,0,1,-19,-19v0a19,19,0,0,1,19,-19z" display="none"></path><g id="node_expander42" style="cursor: pointer;" display="none"><path id="kity_path_419" fill="white" stroke="gray" d="M137.5,577.5A6,6,0,1,1,125.5,577.5A6,6,0,1,1,137.5,577.5"></path><path id="kity_path_420" fill="none" stroke="gray"></path></g><path id="node_outline43" fill="black" stroke="none" d="M83.5,560.5h42v34h-42z"></path><g id="node_text43" fill="#999"><text id="kity_text_219" text-rendering="inherit" font-size="14" dy=".8em" y="570.5" x="93.5">XSS</text></g></g><g id="minder_node45"><path id="kity_path_500" fill="rgba(0, 0, 0, .25)" stroke="none" d="M101,633h0a24,24,0,0,1,24,24v0a24,24,0,0,1,-24,24h0a24,24,0,0,1,-24,-24v0a24,24,0,0,1,24,-24z" display="none"></path><g id="node_expander43" style="cursor: pointer;" display="none"><path id="kity_path_422" fill="white" stroke="gray" d="M137.5,651.5A6,6,0,1,1,125.5,651.5A6,6,0,1,1,137.5,651.5"></path><path id="kity_path_423" fill="none" stroke="gray"></path></g><path id="node_outline44" fill="black" stroke="none" d="M71.5,634.5h54v34h-54z"></path><g id="node_text44" fill="#999"><text id="kity_text_221" text-rendering="inherit" font-size="14" dy=".8em" y="644.5" x="81.5">CSRF</text></g></g><g id="minder_node46"><path id="kity_path_501" fill="rgba(0, 0, 0, .25)" stroke="none" d="M89.5,698h0a33,33,0,0,1,33,33v0a33,33,0,0,1,-33,33h0a33,33,0,0,1,-33,-33v0a33,33,0,0,1,33,-33z" display="none"></path><g id="node_expander44" style="cursor: pointer;" display="none"><path id="kity_path_425" fill="white" stroke="gray" d="M137.5,725.5A6,6,0,1,1,125.5,725.5A6,6,0,1,1,137.5,725.5"></path><path id="kity_path_426" fill="none" stroke="gray"></path></g><path id="node_outline45" fill="black" stroke="none" d="M49.5,708.5h76v34h-76z"></path><g id="node_text45" fill="#999"><text id="kity_text_223" text-rendering="inherit" font-size="14" dy=".8em" y="718.5" x="59.5">加密解密</text></g></g><g id="minder_node47"><path id="kity_path_502" fill="rgba(0, 0, 0, .25)" stroke="none" d="M97,778h0a27,27,0,0,1,27,27v0a27,27,0,0,1,-27,27h0a27,27,0,0,1,-27,-27v0a27,27,0,0,1,27,-27z" display="none"></path><g id="node_expander45" style="cursor: pointer;" display="none"><path id="kity_path_428" fill="white" stroke="gray" d="M137.5,799.5A6,6,0,1,1,125.5,799.5A6,6,0,1,1,137.5,799.5"></path><path id="kity_path_429" fill="none" stroke="gray"></path></g><path id="node_outline46" fill="black" stroke="none" d="M63.5,782.5h62v34h-62z"></path><g id="node_text46" fill="#999"><text id="kity_text_225" text-rendering="inherit" font-size="14" dy=".8em" y="792.5" x="73.5">编解码</text></g></g><g id="minder_node40"><path id="kity_path_496" fill="rgba(0, 0, 0, .25)" stroke="none" d="M351.5,440h0a33,33,0,0,1,33,33v0a33,33,0,0,1,-33,33h0a33,33,0,0,1,-33,-33v0a33,33,0,0,1,33,-33z" display="none"></path><g id="node_expander38" style="cursor: pointer;" display="none"><path id="kity_path_407" fill="white" stroke="gray" d="M399.5,467.5A6,6,0,1,1,387.5,467.5A6,6,0,1,1,399.5,467.5"></path><path id="kity_path_408" fill="none" stroke="gray"></path></g><path id="node_outline39" fill="black" stroke="none" d="M311.5,450.5h76v34h-76z"></path><g id="node_text39" fill="#999"><text id="kity_text_211" text-rendering="inherit" font-size="14" dy=".8em" y="460.5" x="321.5">优化规则</text></g></g><g id="minder_node41"><path id="kity_path_497" fill="rgba(0, 0, 0, .25)" stroke="none" d="M344,508h0a39,39,0,0,1,39,39v0a39,39,0,0,1,-39,39h0a39,39,0,0,1,-39,-39v0a39,39,0,0,1,39,-39z" display="none"></path><g id="node_expander39" style="cursor: pointer;" display="none"><path id="kity_path_410" fill="white" stroke="gray" d="M399.5,541.5A6,6,0,1,1,387.5,541.5A6,6,0,1,1,399.5,541.5"></path><path id="kity_path_411" fill="none" stroke="gray"></path></g><path id="node_outline40" fill="black" stroke="none" d="M297.5,524.5h90v34h-90z"></path><g id="node_text40" fill="#999"><text id="kity_text_213" text-rendering="inherit" font-size="14" dy=".8em" y="534.5" x="307.5">开发者工具</text></g></g><g id="minder_node42"><path id="kity_path_498" fill="rgba(0, 0, 0, .25)" stroke="none" d="M344,582h0a39,39,0,0,1,39,39v0a39,39,0,0,1,-39,39h0a39,39,0,0,1,-39,-39v0a39,39,0,0,1,39,-39z" display="none"></path><g id="node_expander40" style="cursor: pointer;" display="none"><path id="kity_path_413" fill="white" stroke="gray" d="M399.5,615.5A6,6,0,1,1,387.5,615.5A6,6,0,1,1,399.5,615.5"></path><path id="kity_path_414" fill="none" stroke="gray"></path></g><path id="node_outline41" fill="black" stroke="none" d="M297.5,598.5h90v34h-90z"></path><g id="node_text41" fill="#999"><text id="kity_text_215" text-rendering="inherit" font-size="14" dy=".8em" y="608.5" x="307.5">浏览器原理</text></g></g><g id="minder_node49"><path id="kity_path_503" fill="rgba(0, 0, 0, .25)" stroke="none" d="M336,733h0a23,23,0,0,1,23,23v0a23,23,0,0,1,-23,23h0a23,23,0,0,1,-23,-23v0a23,23,0,0,1,23,-23z" display="none"></path><g id="node_expander47" style="cursor: pointer;" display="none"><path id="kity_path_434" fill="white" stroke="gray" d="M370.5,750.5A6,6,0,1,1,358.5,750.5A6,6,0,1,1,370.5,750.5"></path><path id="kity_path_435" fill="none" stroke="gray"></path></g><path id="node_outline48" fill="black" stroke="none" d="M307.5,733.5h51v34h-51z"></path><g id="node_text48" fill="#999"><text id="kity_text_229" text-rendering="inherit" font-size="14" dy=".8em" y="743.5" x="317.5">npm</text></g></g><g id="minder_node50"><path id="kity_path_504" fill="rgba(0, 0, 0, .25)" stroke="none" d="M318,793h0a37,37,0,0,1,37,37v0a37,37,0,0,1,-37,37h0a37,37,0,0,1,-37,-37v0a37,37,0,0,1,37,-37z" display="none"></path><g id="node_expander48" style="cursor: pointer;" display="none"><path id="kity_path_437" fill="white" stroke="gray" d="M370.5,824.5A6,6,0,1,1,358.5,824.5A6,6,0,1,1,370.5,824.5"></path><path id="kity_path_438" fill="none" stroke="gray"></path></g><path id="node_outline49" fill="black" stroke="none" d="M273.5,807.5h85v34h-85z"></path><g id="node_text49" fill="#999"><text id="kity_text_231" text-rendering="inherit" font-size="14" dy=".8em" y="817.5" x="283.5">webpack</text></g></g><g id="minder_node51"><path id="kity_path_505" fill="rgba(0, 0, 0, .25)" stroke="none" d="M326,874h0a30,30,0,0,1,30,30v0a30,30,0,0,1,-30,30h0a30,30,0,0,1,-30,-30v0a30,30,0,0,1,30,-30z" display="none"></path><g id="node_expander49" style="cursor: pointer;" display="none"><path id="kity_path_440" fill="white" stroke="gray" d="M370.5,898.5A6,6,0,1,1,358.5,898.5A6,6,0,1,1,370.5,898.5"></path><path id="kity_path_441" fill="none" stroke="gray"></path></g><path id="node_outline50" fill="black" stroke="none" d="M289.5,881.5h69v34h-69z"></path><g id="node_text50" fill="#999"><text id="kity_text_233" text-rendering="inherit" font-size="14" dy=".8em" y="891.5" x="299.5">postcss</text></g></g><g id="minder_node53"><path id="kity_path_506" fill="rgba(0, 0, 0, .25)" stroke="none" d="M80,881h0a52,52,0,0,1,52,52v0a52,52,0,0,1,-52,52h0a52,52,0,0,1,-52,-52v0a52,52,0,0,1,52,-52z" display="none"></path><g id="node_expander51" style="cursor: pointer;" display="none"><path id="kity_path_446" fill="white" stroke="gray" d="M150.5,927.5A6,6,0,1,1,138.5,927.5A6,6,0,1,1,150.5,927.5"></path><path id="kity_path_447" fill="none" stroke="gray"></path></g><path id="node_outline52" fill="black" stroke="none" d="M20.5,910.5h118v34h-118z"></path><g id="node_text52" fill="#999"><text id="kity_text_237" text-rendering="inherit" font-size="14" dy=".8em" y="920.5" x="30.5">浏览器调试工具</text></g></g><g id="minder_node54"><path id="kity_path_507" fill="rgba(0, 0, 0, .25)" stroke="none" d="M108.5,979h0a28,28,0,0,1,28,28v0a28,28,0,0,1,-28,28h0a28,28,0,0,1,-28,-28v0a28,28,0,0,1,28,-28z" display="none"></path><g id="node_expander52" style="cursor: pointer;" display="none"><path id="kity_path_449" fill="white" stroke="gray" d="M150.5,1001.5A6,6,0,1,1,138.5,1001.5A6,6,0,1,1,150.5,1001.5"></path><path id="kity_path_450" fill="none" stroke="gray"></path></g><path id="node_outline53" fill="black" stroke="none" d="M73.5,984.5h65v34h-65z"></path><g id="node_text53" fill="#999"><text id="kity_text_239" text-rendering="inherit" font-size="14" dy=".8em" y="994.5" x="83.5">Fiddler</text></g></g><g id="minder_node32" opacity="1"><path id="kity_path_490" fill="rgba(0, 0, 0, .25)" stroke="none" d="M288.5,164h0a21,21,0,0,1,21,21v0a21,21,0,0,1,-21,21h0a21,21,0,0,1,-21,-21v0a21,21,0,0,1,21,-21z" display="none"></path><g id="node_expander30" style="cursor: pointer;" display="none"><path id="kity_path_383" fill="white" stroke="gray" d="M321.5,179.5A6,6,0,1,1,309.5,179.5A6,6,0,1,1,321.5,179.5"></path><path id="kity_path_384" fill="none" stroke="gray"></path></g><path id="node_outline31" fill="black" stroke="none" d="M261.5,162.5h48v34h-48z"></path><g id="node_text31" fill="#999"><text id="kity_text_195" text-rendering="inherit" font-size="14" dy=".8em" y="172.5" x="271.5">沟通</text></g></g><g id="minder_node33"><path id="kity_path_491" fill="rgba(0, 0, 0, .25)" stroke="none" d="M288.5,238h0a21,21,0,0,1,21,21v0a21,21,0,0,1,-21,21h0a21,21,0,0,1,-21,-21v0a21,21,0,0,1,21,-21z" display="none"></path><g id="node_expander31" style="cursor: pointer;" display="none"><path id="kity_path_386" fill="white" stroke="gray" d="M321.5,253.5A6,6,0,1,1,309.5,253.5A6,6,0,1,1,321.5,253.5"></path><path id="kity_path_387" fill="none" stroke="gray"></path></g><path id="node_outline32" fill="black" stroke="none" d="M261.5,236.5h48v34h-48z"></path><g id="node_text32" fill="#999"><text id="kity_text_197" text-rendering="inherit" font-size="14" dy=".8em" y="246.5" x="271.5">学习</text></g></g><g id="minder_node34"><path id="kity_path_492" fill="rgba(0, 0, 0, .25)" stroke="none" d="M273.5,300h0a33,33,0,0,1,33,33v0a33,33,0,0,1,-33,33h0a33,33,0,0,1,-33,-33v0a33,33,0,0,1,33,-33z" display="none"></path><g id="node_expander32" style="cursor: pointer;" display="none"><path id="kity_path_389" fill="white" stroke="gray" d="M321.5,327.5A6,6,0,1,1,309.5,327.5A6,6,0,1,1,321.5,327.5"></path><path id="kity_path_390" fill="none" stroke="gray"></path></g><path id="node_outline33" fill="black" stroke="none" d="M233.5,310.5h76v34h-76z"></path><g id="node_text33" fill="#999"><text id="kity_text_199" text-rendering="inherit" font-size="14" dy=".8em" y="320.5" x="243.5">自我管理</text></g></g><g id="minder_node8"><path id="kity_path_471" fill="rgba(0, 0, 0, .25)" stroke="none" d="M1136,169h0a24,24,0,0,1,24,24v0a24,24,0,0,1,-24,24h0a24,24,0,0,1,-24,-24v0a24,24,0,0,1,24,-24z" display="none"></path><g id="node_expander6" style="cursor: pointer;" display="none"><path id="kity_path_311" fill="white" stroke="gray" d="M1105.5,187.5A6,6,0,1,1,1093.5,187.5A6,6,0,1,1,1105.5,187.5"></path><path id="kity_path_312" fill="none" stroke="gray"></path></g><path id="node_outline7" fill="black" stroke="none" d="M1105.5,170.5h55v34h-55z"></path><g id="node_text7" fill="#999"><text id="kity_text_147" text-rendering="inherit" font-size="14" dy=".8em" y="180.5" x="1115.5">DOM</text></g></g><g id="minder_node9"><path id="kity_path_472" fill="rgba(0, 0, 0, .25)" stroke="none" d="M1140.5,239h0a28,28,0,0,1,28,28v0a28,28,0,0,1,-28,28h0a28,28,0,0,1,-28,-28v0a28,28,0,0,1,28,-28z" display="none"></path><g id="node_expander7" style="cursor: pointer;" display="none"><path id="kity_path_314" fill="white" stroke="gray" d="M1105.5,261.5A6,6,0,1,1,1093.5,261.5A6,6,0,1,1,1105.5,261.5"></path><path id="kity_path_315" fill="none" stroke="gray"></path></g><path id="node_outline8" fill="black" stroke="none" d="M1105.5,244.5h65v34h-65z"></path><g id="node_text8" fill="#999"><text id="kity_text_149" text-rendering="inherit" font-size="14" dy=".8em" y="254.5" x="1115.5">ES2015</text></g></g><g id="minder_node10"><path id="kity_path_473" fill="rgba(0, 0, 0, .25)" stroke="none" d="M1133.5,319h0a22,22,0,0,1,22,22v0a22,22,0,0,1,-22,22h0a22,22,0,0,1,-22,-22v0a22,22,0,0,1,22,-22z" display="none"></path><g id="node_expander8" style="cursor: pointer;" display="none"><path id="kity_path_317" fill="white" stroke="gray" d="M1105.5,335.5A6,6,0,1,1,1093.5,335.5A6,6,0,1,1,1105.5,335.5"></path><path id="kity_path_318" fill="none" stroke="gray"></path></g><path id="node_outline9" fill="black" stroke="none" d="M1105.5,318.5h50v34h-50z"></path><g id="node_text9" fill="#999"><text id="kity_text_151" text-rendering="inherit" font-size="14" dy=".8em" y="328.5" x="1115.5">HTTP</text></g></g><g id="minder_node11"><path id="kity_path_474" fill="rgba(0, 0, 0, .25)" stroke="none" d="M1136.5,390h0a25,25,0,0,1,25,25v0a25,25,0,0,1,-25,25h0a25,25,0,0,1,-25,-25v0a25,25,0,0,1,25,-25z" display="none"></path><g id="node_expander9" style="cursor: pointer;" display="none"><path id="kity_path_320" fill="white" stroke="gray" d="M1105.5,409.5A6,6,0,1,1,1093.5,409.5A6,6,0,1,1,1105.5,409.5"></path><path id="kity_path_321" fill="none" stroke="gray"></path></g><path id="node_outline10" fill="black" stroke="none" d="M1105.5,392.5h56v34h-56z"></path><g id="node_text10" fill="#999"><text id="kity_text_153" text-rendering="inherit" font-size="14" dy=".8em" y="402.5" x="1115.5">JSON</text></g></g><g id="minder_node12"><path id="kity_path_475" fill="rgba(0, 0, 0, .25)" stroke="none" d="M1132.5,468h0a21,21,0,0,1,21,21v0a21,21,0,0,1,-21,21h0a21,21,0,0,1,-21,-21v0a21,21,0,0,1,21,-21z" display="none"></path><g id="node_expander10" style="cursor: pointer;" display="none"><path id="kity_path_323" fill="white" stroke="gray" d="M1105.5,483.5A6,6,0,1,1,1093.5,483.5A6,6,0,1,1,1105.5,483.5"></path><path id="kity_path_324" fill="none" stroke="gray"></path></g><path id="node_outline11" fill="black" stroke="none" d="M1105.5,466.5h48v34h-48z"></path><g id="node_text11" fill="#999"><text id="kity_text_155" text-rendering="inherit" font-size="14" dy=".8em" y="476.5" x="1115.5">XML</text></g></g><g id="minder_node13"><path id="kity_path_476" fill="rgba(0, 0, 0, .25)" stroke="none" d="M1125,547h0a16,16,0,0,1,16,16v0a16,16,0,0,1,-16,16h0a16,16,0,0,1,-16,-16v0a16,16,0,0,1,16,-16z" display="none"></path><g id="node_expander11" style="cursor: pointer;" display="none"><path id="kity_path_326" fill="white" stroke="gray" d="M1105.5,557.5A6,6,0,1,1,1093.5,557.5A6,6,0,1,1,1105.5,557.5"></path><path id="kity_path_327" fill="none" stroke="gray"></path></g><path id="node_outline12" fill="black" stroke="none" d="M1105.5,540.5h32v34h-32z"></path><g id="node_text12" fill="#999"><text id="kity_text_157" text-rendering="inherit" font-size="14" dy=".8em" y="550.5" x="1115.5">...</text></g></g><g id="kity_g_12" display="none"><path id="kity_path_13" fill="none" stroke="yellow" d="M311.5,450.5h76v34h-76z" stroke-width="2"></path></g><g id="minder_node15"><path id="kity_path_477" fill="rgba(0, 0, 0, .25)" stroke="none" d="M949,398h0a32,32,0,0,1,32,32v0a32,32,0,0,1,-32,32h0a32,32,0,0,1,-32,-32v0a32,32,0,0,1,32,-32z" display="none"></path><g id="node_expander13" style="cursor: pointer;" display="none"><path id="kity_path_332" fill="white" stroke="gray" d="M910.5,424.5A6,6,0,1,1,898.5,424.5A6,6,0,1,1,910.5,424.5"></path><path id="kity_path_333" fill="none" stroke="gray"></path></g><path id="node_outline14" fill="black" stroke="none" d="M910.5,407.5h73v34h-73z"></path><g id="node_text14" fill="#999"><text id="kity_text_161" text-rendering="inherit" font-size="14" dy=".8em" y="417.5" x="920.5">React.js</text></g></g><g id="minder_node16"><path id="kity_path_478" fill="rgba(0, 0, 0, .25)" stroke="none" d="M955,467h0a37,37,0,0,1,37,37v0a37,37,0,0,1,-37,37h0a37,37,0,0,1,-37,-37v0a37,37,0,0,1,37,-37z" display="none"></path><g id="node_expander14" style="cursor: pointer;" display="none"><path id="kity_path_335" fill="white" stroke="gray" d="M910.5,498.5A6,6,0,1,1,898.5,498.5A6,6,0,1,1,910.5,498.5"></path><path id="kity_path_336" fill="none" stroke="gray"></path></g><path id="node_outline15" fill="black" stroke="none" d="M910.5,481.5h86v34h-86z"></path><g id="node_text15" fill="#999"><text id="kity_text_163" text-rendering="inherit" font-size="14" dy=".8em" y="491.5" x="920.5">Angular.js</text></g></g><g id="minder_node17"><path id="kity_path_479" fill="rgba(0, 0, 0, .25)" stroke="none" d="M945,550h0a28,28,0,0,1,28,28v0a28,28,0,0,1,-28,28h0a28,28,0,0,1,-28,-28v0a28,28,0,0,1,28,-28z" display="none"></path><g id="node_expander15" style="cursor: pointer;" display="none"><path id="kity_path_338" fill="white" stroke="gray" d="M910.5,572.5A6,6,0,1,1,898.5,572.5A6,6,0,1,1,910.5,572.5"></path><path id="kity_path_339" fill="none" stroke="gray"></path></g><path id="node_outline16" fill="black" stroke="none" d="M910.5,555.5h64v34h-64z"></path><g id="node_text16" fill="#999"><text id="kity_text_165" text-rendering="inherit" font-size="14" dy=".8em" y="565.5" x="920.5">jQuery</text></g></g><g id="minder_node18"><path id="kity_path_480" fill="rgba(0, 0, 0, .25)" stroke="none" d="M943,626h0a26,26,0,0,1,26,26v0a26,26,0,0,1,-26,26h0a26,26,0,0,1,-26,-26v0a26,26,0,0,1,26,-26z" display="none"></path><g id="node_expander16" style="cursor: pointer;" display="none"><path id="kity_path_341" fill="white" stroke="gray" d="M910.5,646.5A6,6,0,1,1,898.5,646.5A6,6,0,1,1,910.5,646.5"></path><path id="kity_path_342" fill="none" stroke="gray"></path></g><path id="node_outline17" fill="black" stroke="none" d="M910.5,629.5h60v34h-60z"></path><g id="node_text17" fill="#999"><text id="kity_text_167" text-rendering="inherit" font-size="14" dy=".8em" y="639.5" x="920.5">Vue.js</text></g></g><g id="minder_node19"><path id="kity_path_481" fill="rgba(0, 0, 0, .25)" stroke="none" d="M945.5,698h0a28,28,0,0,1,28,28v0a28,28,0,0,1,-28,28h0a28,28,0,0,1,-28,-28v0a28,28,0,0,1,28,-28z" display="none"></path><g id="node_expander17" style="cursor: pointer;" display="none"><path id="kity_path_344" fill="white" stroke="gray" d="M910.5,720.5A6,6,0,1,1,898.5,720.5A6,6,0,1,1,910.5,720.5"></path><path id="kity_path_345" fill="none" stroke="gray"></path></g><path id="node_outline18" fill="black" stroke="none" d="M910.5,703.5h65v34h-65z"></path><g id="node_text18" fill="#999"><text id="kity_text_169" text-rendering="inherit" font-size="14" dy=".8em" y="713.5" x="920.5">lodash</text></g></g><g id="minder_node25"><path id="kity_path_485" fill="rgba(0, 0, 0, .25)" stroke="none" d="M1327.5,629h0a33,33,0,0,1,33,33v0a33,33,0,0,1,-33,33h0a33,33,0,0,1,-33,-33v0a33,33,0,0,1,33,-33z" display="none"></path><g id="node_expander23" style="cursor: pointer;" display="none"><path id="kity_path_362" fill="white" stroke="gray" d="M1287.5,656.5A6,6,0,1,1,1275.5,656.5A6,6,0,1,1,1287.5,656.5"></path><path id="kity_path_363" fill="none" stroke="gray"></path></g><path id="node_outline24" fill="black" stroke="none" d="M1287.5,639.5h76v34h-76z"></path><g id="node_text24" fill="#999"><text id="kity_text_181" text-rendering="inherit" font-size="14" dy=".8em" y="649.5" x="1297.5">IE 浏览器</text></g></g><g id="minder_node26"><path id="kity_path_486" fill="rgba(0, 0, 0, .25)" stroke="none" d="M1338,693h0a43,43,0,0,1,43,43v0a43,43,0,0,1,-43,43h0a43,43,0,0,1,-43,-43v0a43,43,0,0,1,43,-43z" display="none"></path><g id="node_expander24" style="cursor: pointer;" display="none"><path id="kity_path_365" fill="white" stroke="gray" d="M1287.5,730.5A6,6,0,1,1,1275.5,730.5A6,6,0,1,1,1287.5,730.5"></path><path id="kity_path_366" fill="none" stroke="gray"></path></g><path id="node_outline25" fill="black" stroke="none" d="M1287.5,713.5h99v34h-99z"></path><g id="node_text25" fill="#999"><text id="kity_text_183" text-rendering="inherit" font-size="14" dy=".8em" y="723.5" x="1297.5">CSS3 新特性</text></g></g><g id="minder_node27"><path id="kity_path_487" fill="rgba(0, 0, 0, .25)" stroke="none" d="M1342.5,763h0a47,47,0,0,1,47,47v0a47,47,0,0,1,-47,47h0a47,47,0,0,1,-47,-47v0a47,47,0,0,1,47,-47z" display="none"></path><g id="node_expander25" style="cursor: pointer;" display="none"><path id="kity_path_368" fill="white" stroke="gray" d="M1287.5,804.5A6,6,0,1,1,1275.5,804.5A6,6,0,1,1,1287.5,804.5"></path><path id="kity_path_369" fill="none" stroke="gray"></path></g><path id="node_outline26" fill="black" stroke="none" d="M1287.5,787.5h108v34h-108z"></path><g id="node_text26" fill="#999"><text id="kity_text_185" text-rendering="inherit" font-size="14" dy=".8em" y="797.5" x="1297.5">HTML5 新特性</text></g></g><g id="minder_node28"><path id="kity_path_488" fill="rgba(0, 0, 0, .25)" stroke="none" d="M1322.5,856h0a28,28,0,0,1,28,28v0a28,28,0,0,1,-28,28h0a28,28,0,0,1,-28,-28v0a28,28,0,0,1,28,-28z" display="none"></path><g id="node_expander26" style="cursor: pointer;" display="none"><path id="kity_path_371" fill="white" stroke="gray" d="M1287.5,878.5A6,6,0,1,1,1275.5,878.5A6,6,0,1,1,1287.5,878.5"></path><path id="kity_path_372" fill="none" stroke="gray"></path></g><path id="node_outline27" fill="black" stroke="none" d="M1287.5,861.5h65v34h-65z"></path><g id="node_text27" fill="#999"><text id="kity_text_187" text-rendering="inherit" font-size="14" dy=".8em" y="871.5" x="1297.5">ES2015</text></g></g><g id="minder_node29"><path id="kity_path_489" fill="rgba(0, 0, 0, .25)" stroke="none" d="M1334,919h0a39,39,0,0,1,39,39v0a39,39,0,0,1,-39,39h0a39,39,0,0,1,-39,-39v0a39,39,0,0,1,39,-39z" display="none"></path><g id="node_expander27" style="cursor: pointer;" display="none"><path id="kity_path_374" fill="white" stroke="gray" d="M1287.5,952.5A6,6,0,1,1,1275.5,952.5A6,6,0,1,1,1287.5,952.5"></path><path id="kity_path_375" fill="none" stroke="gray"></path></g><path id="node_outline28" fill="black" stroke="none" d="M1287.5,935.5h90v34h-90z"></path><g id="node_text28" fill="#999"><text id="kity_text_189" text-rendering="inherit" font-size="14" dy=".8em" y="945.5" x="1297.5">移动端版本</text></g></g><g id="minder_node3"><path id="kity_path_467" fill="rgba(0, 0, 0, .25)" stroke="none" d="M947.5,19h0a24,24,0,0,1,24,24v0a24,24,0,0,1,-24,24h0a24,24,0,0,1,-24,-24v0a24,24,0,0,1,24,-24z" display="none"></path><g id="node_expander1" style="cursor: pointer;" display="none"><path id="kity_path_296" fill="white" stroke="gray" d="M917.5,37.5A6,6,0,1,1,905.5,37.5A6,6,0,1,1,917.5,37.5"></path><path id="kity_path_297" fill="none" stroke="gray"></path></g><path id="node_outline2" fill="black" stroke="none" d="M917.5,20.5h55v34h-55z"></path><g id="node_text2" fill="#999"><text id="kity_text_137" text-rendering="inherit" font-size="14" dy=".8em" y="30.5" x="927.5">HTML</text></g></g><g id="minder_node4"><path id="kity_path_468" fill="rgba(0, 0, 0, .25)" stroke="none" d="M943.5,96h0a21,21,0,0,1,21,21v0a21,21,0,0,1,-21,21h0a21,21,0,0,1,-21,-21v0a21,21,0,0,1,21,-21z" display="none"></path><g id="node_expander2" style="cursor: pointer;" display="none"><path id="kity_path_299" fill="white" stroke="gray" d="M917.5,111.5A6,6,0,1,1,905.5,111.5A6,6,0,1,1,917.5,111.5"></path><path id="kity_path_300" fill="none" stroke="gray"></path></g><path id="node_outline3" fill="black" stroke="none" d="M917.5,94.5h45v34h-45z"></path><g id="node_text3" fill="#999"><text id="kity_text_139" text-rendering="inherit" font-size="14" dy=".8em" y="104.5" x="927.5">CSS</text></g></g><g id="minder_node5"><path id="kity_path_469" fill="rgba(0, 0, 0, .25)" stroke="none" d="M964.5,151h0a40,40,0,0,1,40,40v0a40,40,0,0,1,-40,40h0a40,40,0,0,1,-40,-40v0a40,40,0,0,1,40,-40z" display="none"></path><g id="node_expander3" style="cursor: pointer;" display="none"><path id="kity_path_302" fill="white" stroke="gray" d="M917.5,185.5A6,6,0,1,1,905.5,185.5A6,6,0,1,1,917.5,185.5"></path><path id="kity_path_303" fill="none" stroke="gray"></path></g><path id="node_outline4" fill="black" stroke="none" d="M917.5,168.5h91v34h-91z"></path><g id="node_text4" fill="#999"><text id="kity_text_141" text-rendering="inherit" font-size="14" dy=".8em" y="178.5" x="927.5">JavaScript</text></g></g><g id="minder_node6"><path id="kity_path_470" fill="rgba(0, 0, 0, .25)" stroke="none" d="M943.5,244h0a21,21,0,0,1,21,21v0a21,21,0,0,1,-21,21h0a21,21,0,0,1,-21,-21v0a21,21,0,0,1,21,-21z" display="none"></path><g id="node_expander4" style="cursor: pointer;" display="none"><path id="kity_path_305" fill="white" stroke="gray" d="M917.5,259.5A6,6,0,1,1,905.5,259.5A6,6,0,1,1,917.5,259.5"></path><path id="kity_path_306" fill="none" stroke="gray"></path></g><path id="node_outline5" fill="black" stroke="none" d="M917.5,242.5h46v34h-46z"></path><g id="node_text5" fill="#999"><text id="kity_text_143" text-rendering="inherit" font-size="14" dy=".8em" y="252.5" x="927.5">PHP</text></g></g><g id="minder_node21"><path id="kity_path_482" fill="rgba(0, 0, 0, .25)" stroke="none" d="M1035,811h0a39,39,0,0,1,39,39v0a39,39,0,0,1,-39,39h0a39,39,0,0,1,-39,-39v0a39,39,0,0,1,39,-39z" display="none"></path><g id="node_expander19" style="cursor: pointer;" display="none"><path id="kity_path_350" fill="white" stroke="gray" d="M988.5,844.5A6,6,0,1,1,976.5,844.5A6,6,0,1,1,988.5,844.5"></path><path id="kity_path_351" fill="none" stroke="gray"></path></g><path id="node_outline20" fill="black" stroke="none" d="M988.5,827.5h90v34h-90z"></path><g id="node_text20" fill="#999"><text id="kity_text_173" text-rendering="inherit" font-size="14" dy=".8em" y="837.5" x="998.5">函数式编程</text></g></g><g id="minder_node22"><path id="kity_path_483" fill="rgba(0, 0, 0, .25)" stroke="none" d="M1028.5,891h0a33,33,0,0,1,33,33v0a33,33,0,0,1,-33,33h0a33,33,0,0,1,-33,-33v0a33,33,0,0,1,33,-33z" display="none"></path><g id="node_expander20" style="cursor: pointer;" display="none"><path id="kity_path_353" fill="white" stroke="gray" d="M988.5,918.5A6,6,0,1,1,976.5,918.5A6,6,0,1,1,988.5,918.5"></path><path id="kity_path_354" fill="none" stroke="gray"></path></g><path id="node_outline21" fill="black" stroke="none" d="M988.5,901.5h76v34h-76z"></path><g id="node_text21" fill="#999"><text id="kity_text_175" text-rendering="inherit" font-size="14" dy=".8em" y="911.5" x="998.5">面向对象</text></g></g><g id="minder_node23"><path id="kity_path_484" fill="rgba(0, 0, 0, .25)" stroke="none" d="M1028.5,965h0a33,33,0,0,1,33,33v0a33,33,0,0,1,-33,33h0a33,33,0,0,1,-33,-33v0a33,33,0,0,1,33,-33z" display="none"></path><g id="node_expander21" style="cursor: pointer;" display="none"><path id="kity_path_356" fill="white" stroke="gray" d="M988.5,992.5A6,6,0,1,1,976.5,992.5A6,6,0,1,1,988.5,992.5"></path><path id="kity_path_357" fill="none" stroke="gray"></path></g><path id="node_outline22" fill="black" stroke="none" d="M988.5,975.5h76v34h-76z"></path><g id="node_text22" fill="#999"><text id="kity_text_177" text-rendering="inherit" font-size="14" dy=".8em" y="985.5" x="998.5">设计模式</text></g></g></g></g></svg>