<?xml version="1.0" encoding="utf-8"?><!DOCTYPE svg PUBLIC "-//W3C//DTD SVG 1.1//EN" "http://www.w3.org/Graphics/SVG/1.1/DTD/svg11.dtd"><svg version="1.1" xmlns="http://www.w3.org/2000/svg" xmlns:xlink="http://www.w3.org/1999/xlink" x="0px" y="0px" width="783px" height="568px" viewBox="-10.002 -10.001 783 568" enable-background="new -10.002 -10.001 783 568"
	 xml:space="preserve"><path fill="#050505" d="M1.202,21.162v21.763H0V0h1.202v19.959h30.06V0h1.202v42.925h-1.202V21.162H1.202z"/>
<path fill="#050505" d="M38.42,27.715c0.12,8.297,3.427,14.729,12.204,14.729c6.373,0,11.062-3.547,12.084-10.22h1.203
	c-0.842,7.094-6.132,11.423-13.167,11.423c-9.559,0.12-13.527-6.974-13.527-16.172c0-10.281,6.553-16.172,13.527-16.172
	c9.619,0,13.888,7.936,13.527,16.413H38.42z M63.069,26.513c0.06-7.575-4.208-14.008-12.204-14.008
	c-6.673,0-12.024,5.351-12.445,14.008H63.069z"/>
<path fill="#050505" d="M69.083,0h1.202v42.925h-1.202V0z"/>
<path fill="#050505" d="M97.46,12.024h1.322L87.119,42.925h-1.503L72.871,12.024h1.443l11.963,29.699h0.121L97.46,12.024z"/>
<path fill="#050505" d="M100.769,27.715c0.12,8.297,3.427,14.729,12.204,14.729c6.373,0,11.062-3.547,12.084-10.22h1.203
	c-0.842,7.094-6.132,11.423-13.167,11.423c-9.559,0.12-13.527-6.974-13.527-16.172c0-10.281,6.553-16.172,13.527-16.172
	c9.619,0,13.888,7.936,13.527,16.413H100.769z M125.417,26.513c0.06-7.575-4.208-14.008-12.204-14.008
	c-6.673,0-12.024,5.351-12.445,14.008H125.417z"/>
<path fill="#050505" d="M134.739,13.226v23.688c0,4.629,2.284,4.81,4.148,4.81c1.203,0,2.285-0.061,2.646-0.181v1.203
	c-0.722,0.06-1.082,0.18-2.946,0.18c-2.826,0-5.05-1.383-5.05-5.771V13.226h-5.711v-1.202h5.711V2.285h1.203v9.739h6.974v1.202
	H134.739z"/>
<path fill="#050505" d="M147.124,6.072h-1.202V0h1.202V6.072z M147.124,42.925h-1.202V12.024h1.202V42.925z"/>
<path fill="#050505" d="M178.627,32.404c-0.662,6.914-5.651,11.243-12.625,11.243c-8.777,0-13.707-7.094-13.707-15.511
	c0-8.958,4.509-16.833,14.429-16.833c5.771,0,10.881,3.547,11.663,10.1h-1.202c-0.962-6.012-5.351-8.897-10.461-8.897
	c-9.86,0-13.227,8.356-13.227,15.631c0,7.575,4.329,14.309,12.505,14.309c6.072,0,10.942-3.848,11.423-10.04H178.627z"/>
<path fill="#050505" d="M183.74,21.583c0.3-5.832,4.148-10.281,11.783-10.281c5.471,0,10.04,2.104,10.22,8.838v19.659
	c0,2.344,2.225,2.104,3.908,1.924v1.202c-2.345,0.18-5.11,0.18-5.11-3.006v-4.028h-0.12c-1.203,3.968-5.892,7.756-12.265,7.756
	c-6.132,0-10.34-2.886-10.34-8.357c0-7.635,5.471-8.897,10.641-9.258c8.477-0.481,12.084-0.301,12.084-4.99
	c0-3.727-0.782-8.537-9.018-8.537c-6.433,0-10.16,3.307-10.581,9.078H183.74z M204.542,24.769h-0.12
	c-1.624,2.345-6.974,2.104-11.964,2.465c-4.87,0.361-9.439,1.443-9.439,8.056c0,3.547,2.285,7.154,9.018,7.154
	c8.056,0,12.505-5.892,12.505-11.964V24.769z"/>
<path fill="#050505" d="M229.374,0h1.803l29.339,41.422h0.12V0h1.202v42.925h-1.804L230.697,1.503h-0.121v41.422h-1.202V0z"/>
<path fill="#050505" d="M267.794,27.715c0.12,8.297,3.427,14.729,12.204,14.729c6.373,0,11.062-3.547,12.084-10.22h1.203
	c-0.842,7.094-6.132,11.423-13.167,11.423c-9.559,0.12-13.527-6.974-13.527-16.172c0-10.281,6.553-16.172,13.527-16.172
	c9.619,0,13.888,7.936,13.527,16.413H267.794z M292.443,26.513c0.06-7.575-4.208-14.008-12.204-14.008
	c-6.673,0-12.024,5.351-12.445,14.008H292.443z"/>
<path fill="#050505" d="M321.904,42.925h-1.203V35.29h-0.12c-1.143,4.75-5.05,8.357-11.122,8.357
	c-6.433,0-11.002-3.968-11.002-11.123v-20.5h1.202v20.32c0,7.154,4.569,10.1,9.8,10.1c7.395,0,11.242-6.072,11.242-12.926V12.024
	h1.203V42.925z"/>
<path fill="#050505" d="M327.919,27.715c0.12,8.297,3.427,14.729,12.204,14.729c6.373,0,11.062-3.547,12.084-10.22h1.202
	c-0.842,7.094-6.132,11.423-13.167,11.423c-9.559,0.12-13.527-6.974-13.527-16.172c0-10.281,6.553-16.172,13.527-16.172
	c9.62,0,13.888,7.936,13.527,16.413H327.919z M352.568,26.513c0.061-7.575-4.208-14.008-12.204-14.008
	c-6.673,0-12.024,5.351-12.445,14.008H352.568z"/>
<path fill="#050505" d="M402.832,41.723v1.202h-27.535c-0.12-6.854,6.734-11.062,12.865-15.391
	c6.254-4.269,12.385-8.777,12.385-15.21c0-6.373-4.869-9.799-11.361-9.799c-8.537,0-11.964,5.411-11.964,12.926h-1.202
	c0.06-8.958,4.508-14.128,13.167-14.128c6.973,0,12.564,3.667,12.564,11.001c0,6.793-6.072,11.483-12.264,15.812
	c-6.313,4.329-12.385,8.296-12.987,13.587H402.832z"/>
<path fill="#050505" d="M414.258,3.247l-3.727,17.495h0.119c2.285-3.728,6.434-5.531,11.184-5.531
	c8.416,0,14.127,5.892,14.127,14.128c0,8.657-5.711,14.309-14.127,14.309c-8.537,0-14.43-5.11-14.189-13.828h1.203
	c-0.24,7.996,5.049,12.625,12.986,12.625c7.875,0,12.926-5.17,12.926-13.106c0-7.575-5.172-12.926-12.926-12.926
	c-4.811,0-9.199,2.164-11.424,6.252h-1.502l4.389-20.621h20.98v1.203H414.258z"/>
<path fill="#050505" d="M489.111,0h1.201v26.934c0,11.362-5.65,17.014-15.75,17.014c-10.102,0-15.752-5.651-15.752-17.014V0h1.203
	v26.934c0,10.22,4.748,15.812,14.549,15.812c9.799,0,14.549-5.591,14.549-15.812V0z"/>
<path fill="#050505" d="M496.869,0h1.201v42.925h-1.201V0z"/>
<path fill="#050505" d="M507.992,13.226v23.688c0,4.629,2.283,4.81,4.148,4.81c1.201,0,2.283-0.061,2.645-0.181v1.203
	c-0.721,0.06-1.082,0.18-2.945,0.18c-2.826,0-5.051-1.383-5.051-5.771V13.226h-5.711v-1.202h5.711V2.285h1.203v9.739h6.973v1.202
	H507.992z"/>
<path fill="#050505" d="M520.377,42.925h-1.203V12.024h1.203v7.635h0.119c1.143-4.569,4.75-8.597,12.145-8.357v1.203
	c-8.477-0.421-12.264,6.192-12.264,12.926V42.925z"/>
<path fill="#050505" d="M534.686,21.583c0.301-5.832,4.148-10.281,11.785-10.281c5.471,0,10.039,2.104,10.219,8.838v19.659
	c0,2.344,2.225,2.104,3.908,1.924v1.202c-2.344,0.18-5.109,0.18-5.109-3.006v-4.028h-0.121c-1.201,3.968-5.891,7.756-12.264,7.756
	c-6.133,0-10.342-2.886-10.342-8.357c0-7.635,5.473-8.897,10.643-9.258c8.477-0.481,12.084-0.301,12.084-4.99
	c0-3.727-0.781-8.537-9.018-8.537c-6.434,0-10.16,3.307-10.582,9.078H534.686z M555.488,24.769h-0.121
	c-1.623,2.345-6.973,2.104-11.963,2.465c-4.871,0.361-9.439,1.443-9.439,8.056c0,3.547,2.285,7.154,9.018,7.154
	c8.057,0,12.506-5.892,12.506-11.964V24.769z"/>
<path fill="#050505" d="M606.592,41.723v1.202H580.32V0h1.203v41.723H606.592z"/>
<path fill="#050505" d="M610.502,6.072h-1.203V0h1.203V6.072z M610.502,42.925h-1.203V12.024h1.203V42.925z"/>
<path fill="#050505" d="M640.623,32.584h-0.121c-1.262,5.471-6.854,8.657-12.145,8.657c-8.596,0-12.865-6.854-12.865-14.789
	c0-8.297,4.57-15.15,13.287-15.15c5.891,0,10.521,3.908,11.723,8.958h0.121v-8.236h1.201v29.879c0,8.417-4.809,12.385-12.865,12.385
	c-6.252,0-11.604-2.826-11.783-9.74h1.203c0.24,6.132,4.93,8.537,10.52,8.537c7.455,0,11.725-3.547,11.725-11.182V32.584z
	 M628.779,12.505c-7.996,0-12.084,6.433-12.084,13.948c0,7.635,4.088,13.587,11.604,13.587c7.936,0,12.264-6.132,12.264-13.587
	C640.623,19.358,636.535,12.505,628.779,12.505z"/>
<path fill="#050505" d="M648.32,0h1.201v19.659h0.121c1.143-4.75,5.051-8.357,11.121-8.357c6.434,0,11.002,3.968,11.002,11.122
	v20.501h-1.201v-20.32c0-7.154-4.57-10.1-9.801-10.1c-7.395,0-11.242,6.072-11.242,12.926v17.495h-1.201V0z"/>
<path fill="#050505" d="M681.689,13.226v23.688c0,4.629,2.283,4.81,4.148,4.81c1.201,0,2.283-0.061,2.645-0.181v1.203
	c-0.721,0.06-1.082,0.18-2.945,0.18c-2.826,0-5.051-1.383-5.051-5.771V13.226h-5.711v-1.202h5.711V2.285h1.203v9.739h6.973v1.202
	H681.689z"/>
<path fill="#050505" d="M3.186,93.763v21.162H0.541V72h2.645v19.479h27.415V72h2.646v42.925h-2.646V93.763H3.186z"/>
<path fill="#050505" d="M41.306,99.775c-0.12,7.275,3.728,13.888,11.363,13.888c5.832,0,9.979-3.487,11.062-9.198h2.285
	c-1.202,7.214-6.012,11.183-13.346,11.183c-9.018,0-13.768-7.094-13.647-15.631c-0.12-8.477,4.329-16.713,13.647-16.713
	c9.679,0,14.008,7.635,13.587,16.473H41.306z M63.971,97.791c-0.12-6.493-4.208-12.505-11.302-12.505
	c-6.854,0-10.882,6.373-11.363,12.505H63.971z"/>
<path fill="#050505" d="M74.434,72v42.925h-2.285V72H74.434z"/>
<path fill="#050505" d="M93.493,114.925h-2.825L78.223,84.024h2.645L92.05,112.28h0.12l10.461-28.256h2.525L93.493,114.925z"/>
<path fill="#050505" d="M109.306,99.775c-0.12,7.275,3.728,13.888,11.363,13.888c5.832,0,9.979-3.487,11.062-9.198h2.285
	c-1.202,7.214-6.012,11.183-13.346,11.183c-9.018,0-13.768-7.094-13.647-15.631c-0.12-8.477,4.329-16.713,13.647-16.713
	c9.679,0,14.008,7.635,13.587,16.473H109.306z M131.971,97.791c-0.12-6.493-4.208-12.505-11.302-12.505
	c-6.854,0-10.882,6.373-11.363,12.505H131.971z"/>
<path fill="#050505" d="M150.972,86.008h-6.733v21.583c0,4.99,2.344,5.471,6.673,5.351v1.984c-4.689,0.301-9.199-0.361-8.958-7.334
	V86.008h-5.711v-1.984h5.711v-9.619h2.285v9.619h6.733V86.008z"/>
<path fill="#050505" d="M155.721,78.192V72h2.285v6.192H155.721z M155.721,114.925V84.024h2.285v30.901H155.721z"/>
<path fill="#050505" d="M188.547,93.583c-0.421-5.471-4.87-8.297-10.46-8.297c-7.755,0-11.904,6.854-11.904,13.888
	c0,8.357,3.908,14.489,11.904,14.489c5.771,0,9.979-3.968,10.761-9.619h2.285c-1.022,7.395-6.373,11.604-13.046,11.604
	c-10.04,0-14.188-7.876-14.188-16.473s5.05-15.872,14.188-15.872c6.673,0,12.084,3.247,12.745,10.281H188.547z"/>
<path fill="#050505" d="M219.271,109.214c0,1.804,0,3.728,2.044,3.728c0.42,0,0.962-0.06,1.683-0.18v1.924
	c-0.661,0.12-1.263,0.24-1.864,0.24c-3.607,0-4.148-1.984-4.148-4.509v-1.624h-0.121c-1.443,3.667-5.591,6.854-11.483,6.854
	c-5.832,0-10.34-2.225-10.34-8.718c0-7.214,6.252-8.717,11.363-9.138c10.22-0.721,10.641-1.382,10.641-6.433
	c0-1.383-1.563-6.072-8.597-6.072c-5.531,0-9.198,2.886-9.499,8.237h-2.285c0.301-6.794,4.509-10.221,11.784-10.221
	c5.411,0,10.821,1.684,10.821,8.056V109.214z M216.987,97.371c-1.804,2.044-6.733,1.803-11.183,2.404
	c-5.411,0.602-8.477,2.525-8.477,7.154c0,3.728,2.705,6.733,8.116,6.733c10.4,0,11.543-8.897,11.543-10.521V97.371z"/>
<path fill="#050505" d="M243.684,72h3.307l27.114,39.378h0.12V72h2.646v42.925h-3.126L246.45,75.247h-0.121v39.679h-2.645V72z"/>
<path fill="#050505" d="M284.929,99.775c-0.12,7.275,3.728,13.888,11.362,13.888c5.832,0,9.98-3.487,11.063-9.198h2.284
	c-1.202,7.214-6.012,11.183-13.347,11.183c-9.018,0-13.767-7.094-13.647-15.631c-0.12-8.477,4.329-16.713,13.647-16.713
	c9.68,0,14.008,7.635,13.587,16.473H284.929z M307.594,97.791c-0.12-6.493-4.208-12.505-11.303-12.505
	c-6.854,0-10.881,6.373-11.362,12.505H307.594z"/>
<path fill="#050505" d="M339.701,114.925h-2.285v-6.613h-0.12c-1.563,4.629-6.252,7.335-11.062,7.335
	c-10.882,0-11.002-8.718-11.002-12.505V84.024h2.285v19.539c0,3.187,0.36,10.1,8.777,10.1c6.914,0,11.122-5.351,11.122-12.926
	V84.024h2.285V114.925z"/>
<path fill="#050505" d="M347.339,99.775c-0.12,7.275,3.727,13.888,11.363,13.888c5.831,0,9.979-3.487,11.062-9.198h2.285
	c-1.203,7.214-6.013,11.183-13.347,11.183c-9.019,0-13.768-7.094-13.647-15.631c-0.12-8.477,4.329-16.713,13.647-16.713
	c9.679,0,14.008,7.635,13.587,16.473H347.339z M370.003,97.791c-0.12-6.493-4.208-12.505-11.302-12.505
	c-6.854,0-10.882,6.373-11.363,12.505H370.003z"/>
<path fill="#050505" d="M395.439,101.218c-0.301,7.695,4.447,12.444,12.084,12.444c6.131,0,11.902-3.607,11.902-10.22
	c0-7.936-7.094-10.04-13.947-9.559v-1.984c6.072,0.241,12.986-1.503,12.986-8.717c0-5.832-5.893-8.477-10.941-8.477
	c-7.275,0-10.762,4.99-11.063,11.844h-2.285c0.061-8.176,5.111-13.828,13.348-13.828c6.672,0,13.225,3.066,13.225,10.461
	c0,4.93-3.246,8.837-8.115,9.499v0.12c5.65,0.661,9.078,5.05,9.078,10.641c0,8.176-6.492,12.205-14.188,12.205
	c-9.139,0-14.791-5.17-14.369-14.429H395.439z"/>
<path fill="#050505" d="M432.234,73.443h20.982v1.984h-19.178l-3.547,16.533l0.119,0.12c2.404-3.306,6.133-4.99,10.281-4.99
	c8.236,0,14.068,5.892,14.068,14.128c0,8.236-5.771,14.429-14.068,14.429c-7.936,0-14.789-5.05-14.248-13.407h2.283
	c-0.119,6.914,5.291,11.422,11.965,11.422c7.033,0,11.783-5.651,11.783-12.444c0-6.733-4.99-12.145-11.783-12.145
	c-4.689,0-7.996,1.984-10.641,5.832h-2.346L432.234,73.443z"/>
<path fill="#050505" d="M473.721,74.285V72h32.887v2.285h-15.15v40.641h-2.646V74.285H473.721z"/>
<path fill="#050505" d="M511.42,72v18.637h0.119c1.564-4.629,6.254-7.335,11.063-7.335c10.881,0,11.002,8.717,11.002,12.505v19.118
	h-2.285V95.386c0-3.186-0.359-10.1-8.777-10.1c-6.914,0-11.121,5.351-11.121,12.926v16.713h-2.285V72H511.42z"/>
<path fill="#050505" d="M540.881,78.192V72h2.285v6.192H540.881z M540.881,114.925V84.024h2.285v30.901H540.881z"/>
<path fill="#050505" d="M550.441,84.024h2.283v6.613h0.121c1.563-4.629,6.252-7.335,11.063-7.335c10.881,0,11,8.717,11,12.505
	v19.118h-2.283V95.386c0-3.186-0.361-10.1-8.777-10.1c-6.914,0-11.123,5.351-11.123,12.926v16.713h-2.283V84.024z"/>
<path fill="#050505" d="M1.082,144H5.17v18.638h25.49V144h4.088v42.926h-4.088v-20.802H5.17v20.802H1.082V144z"/>
<path fill="#050505" d="M44.913,172.436c0.06,5.531,2.946,12.205,10.22,12.205c5.531,0,8.537-3.247,9.74-7.937h3.787
	c-1.623,7.034-5.711,11.122-13.527,11.122c-9.859,0-14.008-7.574-14.008-16.412c0-8.177,4.148-16.413,14.008-16.413
	c9.98,0,13.948,8.718,13.647,17.435H44.913z M64.993,169.25c-0.181-5.712-3.728-11.063-9.86-11.063
	c-6.192,0-9.619,5.411-10.22,11.063H64.993z"/>
<path fill="#050505" d="M73.953,144h3.788v42.926h-3.788V144z"/>
<path fill="#050505" d="M81.529,155.904h4.208l9.739,27.234h0.121l9.619-27.234h3.908l-11.603,31.021h-4.028L81.529,155.904z"/>
<path fill="#050505" d="M115.078,172.436c0.06,5.531,2.946,12.205,10.22,12.205c5.531,0,8.537-3.247,9.74-7.937h3.788
	c-1.624,7.034-5.711,11.122-13.527,11.122c-9.859,0-14.008-7.574-14.008-16.412c0-8.177,4.148-16.413,14.008-16.413
	c9.98,0,13.948,8.718,13.647,17.435H115.078z M135.158,169.25c-0.18-5.712-3.728-11.063-9.86-11.063
	c-6.192,0-9.619,5.411-10.22,11.063H135.158z"/>
<path fill="#050505" d="M150.07,155.904h6.313v3.187h-6.313v20.921c0,2.465,0.361,3.908,3.066,4.089
	c1.083,0,2.165-0.061,3.247-0.181v3.246c-1.142,0-2.224,0.12-3.367,0.12c-5.05,0-6.793-1.683-6.733-6.974V159.09h-5.411v-3.187
	h5.411v-9.318h3.788V155.904z"/>
<path fill="#050505" d="M161.915,144h3.788v6.072h-3.788V144z M161.915,155.904h3.788v31.021h-3.788V155.904z"/>
<path fill="#050505" d="M194.861,165.643c-1.022-4.629-3.848-7.455-8.777-7.455c-7.274,0-10.882,6.613-10.882,13.227
	s3.607,13.227,10.882,13.227c4.689,0,8.537-3.668,9.018-8.838h3.787c-1.022,7.455-5.892,12.023-12.805,12.023
	c-9.499,0-14.669-7.515-14.669-16.412s5.17-16.413,14.669-16.413c6.613,0,11.723,3.547,12.565,10.642H194.861z"/>
<path fill="#050505" d="M203.822,165.403c0.36-7.274,5.471-10.401,12.565-10.401c5.471,0,11.423,1.684,11.423,9.98v16.473
	c0,1.442,0.721,2.284,2.224,2.284c0.421,0,0.902-0.12,1.203-0.24v3.187c-0.842,0.18-1.443,0.24-2.465,0.24
	c-3.848,0-4.449-2.164-4.449-5.411h-0.12c-2.645,4.028-5.351,6.313-11.302,6.313c-5.711,0-10.401-2.825-10.401-9.077
	c0-8.718,8.477-9.019,16.653-9.98c3.126-0.36,4.87-0.781,4.87-4.208c0-5.11-3.667-6.373-8.116-6.373
	c-4.689,0-8.176,2.164-8.296,7.215H203.822z M224.022,169.971h-0.12c-0.481,0.902-2.165,1.203-3.187,1.383
	c-6.433,1.143-14.429,1.082-14.429,7.154c0,3.788,3.367,6.133,6.914,6.133c5.771,0,10.882-3.668,10.822-9.739V169.971z"/>
<path fill="#050505" d="M252.763,144h4.569l25.01,36.313h0.121V144h4.088v42.926h-4.569l-25.01-36.313h-0.121v36.313h-4.088V144z"/>
<path fill="#050505" d="M296.654,172.436c0.06,5.531,2.946,12.205,10.22,12.205c5.531,0,8.537-3.247,9.74-7.937h3.787
	c-1.623,7.034-5.711,11.122-13.527,11.122c-9.859,0-14.008-7.574-14.008-16.412c0-8.177,4.148-16.413,14.008-16.413
	c9.98,0,13.948,8.718,13.647,17.435H296.654z M316.734,169.25c-0.181-5.712-3.728-11.063-9.86-11.063
	c-6.192,0-9.619,5.411-10.22,11.063H316.734z"/>
<path fill="#050505" d="M350.764,186.925h-3.487v-5.591h-0.12c-1.984,4.147-6.072,6.492-10.701,6.492
	c-7.815,0-10.882-4.568-10.882-11.783v-20.14h3.788v20.2c0.181,5.591,2.285,8.537,8.296,8.537c6.493,0,9.319-6.133,9.319-12.445
	v-16.292h3.788V186.925z"/>
<path fill="#050505" d="M360.145,172.436c0.06,5.531,2.945,12.205,10.22,12.205c5.531,0,8.537-3.247,9.739-7.937h3.789
	c-1.623,7.034-5.712,11.122-13.528,11.122c-9.859,0-14.008-7.574-14.008-16.412c0-8.177,4.148-16.413,14.008-16.413
	c9.981,0,13.948,8.718,13.647,17.435H360.145z M380.225,169.25c-0.18-5.712-3.727-11.063-9.86-11.063
	c-6.192,0-9.619,5.411-10.22,11.063H380.225z"/>
<path fill="#050505" d="M404.037,172.797l19.479-27.956h3.426v28.437h6.313v3.187h-6.313v10.461h-3.486v-10.461h-19.418V172.797z
	 M423.455,173.278v-22.905h-0.121l-15.871,22.905H423.455z"/>
<path fill="#050505" d="M441.615,174.902c0.18,5.831,4.568,9.739,10.34,9.739c6.492,0,10.521-5.351,10.521-11.483
	c0-6.192-4.51-10.941-10.762-10.941c-3.729,0-7.334,1.804-9.379,4.99h-3.246l4.088-21.824h21.041v3.487h-18.396l-2.705,13.947
	l0.121,0.121c2.104-2.466,5.65-3.908,8.896-3.908c8.658,0,14.129,6.072,14.129,14.549c0,8.236-6.553,14.248-14.609,14.248
	c-7.814,0-13.646-4.93-13.828-12.925H441.615z"/>
<path fill="#050505" d="M490.135,144h4.088v39.438h24.049v3.487h-28.137V144z"/>
<path fill="#050505" d="M521.76,144h3.789v6.072h-3.789V144z M521.76,155.904h3.789v31.021h-3.789V155.904z"/>
<path fill="#050505" d="M559.035,184.4c-0.061,9.259-3.607,14.91-13.768,14.91c-6.191,0-12.324-2.766-12.865-9.379h3.787
	c0.842,4.569,4.871,6.192,9.078,6.192c6.975,0,9.98-4.148,9.98-11.724v-4.208h-0.121c-1.742,3.787-5.41,6.373-9.859,6.373
	c-9.92,0-14.008-7.095-14.008-15.932c0-8.537,5.051-15.632,14.008-15.632c4.51,0,8.357,2.826,9.859,6.253h0.121v-5.351h3.787V184.4z
	 M555.248,171.054c0-6.072-2.826-12.866-9.98-12.866c-7.213,0-10.219,6.433-10.219,12.866c0,6.252,3.246,12.324,10.219,12.324
	C551.822,183.378,555.248,177.367,555.248,171.054z"/>
<path fill="#050505" d="M566.191,144h3.789v17.255h0.119c1.383-3.728,5.531-6.253,9.92-6.253c8.717,0,11.363,4.569,11.363,11.964
	v19.96h-3.789v-19.358c0-5.351-1.742-9.379-7.875-9.379c-6.012,0-9.619,4.569-9.738,10.642v18.096h-3.789V144z"/>
<path fill="#050505" d="M604.551,155.904h6.313v3.187h-6.313v20.921c0,2.465,0.361,3.908,3.066,4.089
	c1.082,0,2.164-0.061,3.246-0.181v3.246c-1.143,0-2.225,0.12-3.365,0.12c-5.051,0-6.795-1.683-6.734-6.974V159.09h-5.41v-3.187h5.41
	v-9.318h3.787V155.904z"/>
<path fill="#050505" d="M1.443,216h5.711v18.457h22.605V216h5.711v42.926h-5.711v-19.659H7.154v19.659H1.443V216z"/>
<path fill="#050505" d="M70.523,249.066c-1.383,6.854-6.313,10.581-13.286,10.581c-9.92,0-14.609-6.854-14.91-16.353
	c0-9.318,6.132-16.173,14.609-16.173c11.002,0,14.369,10.281,14.068,17.796H47.738c-0.181,5.411,2.886,10.221,9.679,10.221
	c4.208,0,7.154-2.045,8.056-6.072H70.523z M65.593,240.409c-0.241-4.87-3.908-8.777-8.958-8.777c-5.351,0-8.537,4.027-8.897,8.777
	H65.593z"/>
<path fill="#050505" d="M76.598,216h5.11v42.926h-5.11V216z"/>
<path fill="#050505" d="M103.651,258.925h-5.471l-11.543-31.082h5.711l8.717,25.912h0.12l8.477-25.912h5.351L103.651,258.925z"/>
<path fill="#050505" d="M146.219,249.066c-1.383,6.854-6.313,10.581-13.287,10.581c-9.919,0-14.609-6.854-14.909-16.353
	c0-9.318,6.132-16.173,14.609-16.173c11.002,0,14.369,10.281,14.068,17.796h-23.266c-0.181,5.411,2.886,10.221,9.679,10.221
	c4.208,0,7.154-2.045,8.056-6.072H146.219z M141.289,240.409c-0.241-4.87-3.908-8.777-8.958-8.777c-5.351,0-8.537,4.027-8.897,8.777
	H141.289z"/>
<path fill="#050505" d="M159.087,227.843h6.192v4.509h-6.192v19.299c0,2.345,0.661,2.766,3.848,2.766h2.345v4.509h-3.908
	c-5.291,0-7.395-1.082-7.395-6.794v-19.779h-5.291v-4.509h5.291v-9.318h5.11V227.843z"/>
<path fill="#050505" d="M176.342,222.252h-5.11V216h5.11V222.252z M171.232,227.843h5.11v31.082h-5.11V227.843z"/>
<path fill="#050505" d="M205.38,237.824c-0.782-3.908-3.487-6.192-7.695-6.192c-7.395,0-9.679,5.831-9.679,12.144
	c0,5.712,2.585,11.363,9.078,11.363c4.93,0,7.875-2.886,8.537-7.575h5.23c-1.142,7.575-5.892,12.084-13.707,12.084
	c-9.499,0-14.549-6.613-14.549-15.872c0-9.318,4.81-16.653,14.669-16.653c7.034,0,12.685,3.307,13.407,10.702H205.38z"/>
<path fill="#050505" d="M244.099,258.805c-0.902,0.541-2.044,0.842-3.667,0.842c-2.646,0-4.329-1.443-4.329-4.81
	c-2.826,3.307-6.613,4.81-10.942,4.81c-5.651,0-10.28-2.525-10.28-8.718c0-7.034,5.23-8.537,10.521-9.559
	c5.651-1.082,10.461-0.722,10.461-4.569c0-4.449-3.667-5.17-6.914-5.17c-4.329,0-7.515,1.322-7.755,5.892h-5.11
	c0.301-7.695,6.252-10.401,13.166-10.401c5.591,0,11.664,1.263,11.664,8.537v15.992c0,2.404,0,3.487,1.623,3.487
	c0.421,0,0.902-0.061,1.563-0.301V258.805z M235.803,242.874c-1.984,1.442-5.832,1.503-9.258,2.104
	c-3.367,0.601-6.252,1.803-6.252,5.591c0,3.366,2.886,4.569,6.012,4.569c6.733,0,9.499-4.209,9.499-7.034V242.874z"/>
<path fill="#050505" d="M266.347,216h6.072l22.605,34.81h0.12V216h5.411v42.926h-6.252l-22.425-34.448h-0.12v34.448h-5.411V216z"/>
<path fill="#050505" d="M335.487,249.066c-1.383,6.854-6.313,10.581-13.287,10.581c-9.919,0-14.609-6.854-14.909-16.353
	c0-9.318,6.132-16.173,14.609-16.173c11.002,0,14.369,10.281,14.068,17.796h-23.266c-0.181,5.411,2.886,10.221,9.679,10.221
	c4.208,0,7.154-2.045,8.056-6.072H335.487z M330.558,240.409c-0.241-4.87-3.908-8.777-8.958-8.777c-5.351,0-8.537,4.027-8.897,8.777
	H330.558z"/>
<path fill="#050505" d="M366.993,258.925h-4.81v-4.93h-0.12c-2.165,3.848-5.651,5.651-10.101,5.651
	c-8.176,0-10.701-4.689-10.701-11.363v-20.44h5.11v21.042c0,3.788,2.404,6.253,6.313,6.253c6.192,0,9.198-4.148,9.198-9.74v-17.555
	h5.11V258.925z"/>
<path fill="#050505" d="M401.203,249.066c-1.383,6.854-6.313,10.581-13.285,10.581c-9.92,0-14.61-6.854-14.911-16.353
	c0-9.318,6.133-16.173,14.61-16.173c11.002,0,14.367,10.281,14.068,17.796h-23.267c-0.181,5.411,2.886,10.221,9.679,10.221
	c4.209,0,7.154-2.045,8.057-6.072H401.203z M396.273,240.409c-0.24-4.87-3.908-8.777-8.957-8.777c-5.352,0-8.538,4.027-8.898,8.777
	H396.273z"/>
<path fill="#050505" d="M448.1,221.531h-17.193l-2.285,12.265l0.121,0.12c1.863-2.104,5.051-3.066,7.936-3.066
	c7.574,0,13.768,4.87,13.768,14.609c0,7.215-4.99,14.188-14.91,14.188c-7.395,0-13.406-4.509-13.586-12.204h5.109
	c0.301,4.389,3.848,7.695,8.957,7.695c4.871,0,9.02-3.307,9.02-10.101c0-5.651-3.908-9.679-9.619-9.679
	c-3.248,0-5.953,1.623-7.938,4.027l-4.389-0.24l3.969-22.124H448.1V221.531z"/>
<path fill="#050505" d="M481.529,221.531h-17.193l-2.285,12.265l0.119,0.12c1.865-2.104,5.051-3.066,7.938-3.066
	c7.574,0,13.766,4.87,13.766,14.609c0,7.215-4.988,14.188-14.908,14.188c-7.395,0-13.408-4.509-13.588-12.204h5.111
	c0.299,4.389,3.848,7.695,8.957,7.695c4.869,0,9.018-3.307,9.018-10.101c0-5.651-3.908-9.679-9.619-9.679
	c-3.246,0-5.951,1.623-7.936,4.027l-4.389-0.24l3.969-22.124h21.041V221.531z"/>
<path fill="#050505" d="M508.107,216h20.199c8.057,0,13.047,4.389,13.047,11.243c0,5.17-2.285,9.438-7.455,10.881v0.12
	c4.99,0.963,6.012,4.63,6.432,8.838c0.361,4.209,0.121,8.897,2.525,11.844h-6.373c-1.623-1.743-0.721-6.373-1.563-10.581
	c-0.602-4.208-1.623-7.756-7.154-7.756h-13.947v18.337h-5.711V216z M525.723,235.779c5.35,0,9.92-1.383,9.92-7.635
	c0-4.208-2.285-7.335-7.637-7.335h-14.188v14.97H525.723z"/>
<path fill="#050505" d="M561.857,227.122c9.859,0,15.09,7.154,15.09,16.293c0,9.078-5.23,16.232-15.09,16.232
	s-15.09-7.154-15.09-16.232C546.768,234.276,551.998,227.122,561.857,227.122z M561.857,255.138c5.352,0,9.68-4.209,9.68-11.724
	c0-7.575-4.328-11.783-9.68-11.783s-9.68,4.208-9.68,11.783C552.178,250.929,556.506,255.138,561.857,255.138z"/>
<path fill="#050505" d="M582.963,227.843h4.809v4.569h0.121c2.285-3.487,5.771-5.291,10.039-5.291c3.789,0,7.275,1.503,8.537,5.291
	c2.105-3.307,5.771-5.291,9.74-5.291c6.191,0,10.34,2.586,10.34,9.019v22.785h-5.109v-20.381c0-3.848-1.023-6.913-6.012-6.913
	c-4.93,0-8.117,3.126-8.117,7.936v19.358h-5.109v-20.381c0-4.027-1.264-6.913-5.832-6.913c-6.072,0-8.297,5.591-8.297,7.936v19.358
	h-5.109V227.843z"/>
<path fill="#050505" d="M661.783,258.805c-0.902,0.541-2.043,0.842-3.668,0.842c-2.645,0-4.328-1.443-4.328-4.81
	c-2.826,3.307-6.613,4.81-10.941,4.81c-5.65,0-10.281-2.525-10.281-8.718c0-7.034,5.23-8.537,10.521-9.559
	c5.652-1.082,10.461-0.722,10.461-4.569c0-4.449-3.668-5.17-6.914-5.17c-4.328,0-7.514,1.322-7.756,5.892h-5.109
	c0.301-7.695,6.252-10.401,13.166-10.401c5.592,0,11.664,1.263,11.664,8.537v15.992c0,2.404,0,3.487,1.623,3.487
	c0.42,0,0.9-0.061,1.563-0.301V258.805z M653.486,242.874c-1.984,1.442-5.832,1.503-9.258,2.104
	c-3.367,0.601-6.252,1.803-6.252,5.591c0,3.366,2.885,4.569,6.012,4.569c6.732,0,9.498-4.209,9.498-7.034V242.874z"/>
<path fill="#050505" d="M666.535,227.843h4.809v4.93h0.121c2.164-3.848,5.65-5.651,10.1-5.651c8.176,0,10.701,4.689,10.701,11.363
	v20.44h-5.109v-21.042c0-3.787-2.406-6.252-6.313-6.252c-6.193,0-9.199,4.147-9.199,9.739v17.555h-5.109V227.843z"/>
<path fill="#050505" d="M1.142,288h7.515v17.074h19.539V288h7.515v42.926h-7.515v-19.357H8.657v19.357H1.142V288z"/>
<path fill="#050505" d="M49.121,317.158c0,4.871,2.645,9.199,8.356,9.199c3.968,0,6.373-1.744,7.575-5.17h6.493
	c-1.503,6.793-7.274,10.58-14.068,10.58c-9.739,0-15.21-6.793-15.21-16.352c0-8.838,5.771-16.414,15.03-16.414
	c9.799,0,15.811,8.838,14.669,18.156H49.121z M65.112,312.65c-0.241-4.33-3.187-8.236-7.815-8.236c-4.75,0-7.996,3.607-8.176,8.236
	H65.112z"/>
<path fill="#050505" d="M77.38,288h6.854v42.926H77.38V288z"/>
<path fill="#050505" d="M88.623,299.843h7.455l7.875,23.867h0.12l7.575-23.867h7.094l-11.122,31.082h-7.695L88.623,299.843z"/>
<path fill="#050505" d="M128.245,317.158c0,4.871,2.645,9.199,8.356,9.199c3.968,0,6.373-1.744,7.575-5.17h6.493
	c-1.503,6.793-7.274,10.58-14.068,10.58c-9.739,0-15.21-6.793-15.21-16.352c0-8.838,5.771-16.414,15.03-16.414
	c9.799,0,15.812,8.838,14.669,18.156H128.245z M144.237,312.65c-0.241-4.33-3.187-8.236-7.815-8.236
	c-4.75,0-7.996,3.607-8.176,8.236H144.237z"/>
<path fill="#050505" d="M153.197,299.843h5.17v-9.318h6.854v9.318h6.192v5.111h-6.192v16.592c0,2.826,0.24,4.27,3.307,4.27
	c0.962,0,1.924,0,2.886-0.24v5.289c-1.503,0.121-2.946,0.361-4.449,0.361c-7.154,0-8.477-2.766-8.597-7.936v-18.336h-5.17V299.843z"
	/>
<path fill="#050505" d="M176.525,288h6.854v6.494h-6.854V288z M176.525,299.843h6.854v31.082h-6.854V299.843z"/>
<path fill="#050505" d="M211.816,310.244c-0.541-3.787-3.307-5.83-7.094-5.83c-3.547,0-8.537,1.863-8.537,11.303
	c0,5.17,2.284,10.641,8.236,10.641c3.968,0,6.733-2.646,7.395-7.094h6.854c-1.262,8.055-6.252,12.504-14.248,12.504
	c-9.74,0-15.09-6.914-15.09-16.051c0-9.379,5.11-16.715,15.331-16.715c7.214,0,13.347,3.607,14.008,11.242H211.816z"/>
<path fill="#050505" d="M250.296,324.011c0,1.684,0.36,2.346,1.623,2.346c0.421,0,0.962,0,1.683-0.121v4.75
	c-1.022,0.361-3.186,0.781-4.328,0.781c-2.766,0-4.75-0.961-5.291-3.787c-2.705,2.645-7.094,3.787-10.761,3.787
	c-5.591,0-10.641-3.006-10.641-9.078c0-7.756,6.192-9.018,11.964-9.68c4.93-0.9,9.318-0.359,9.318-4.389
	c0-3.547-3.667-4.207-6.433-4.207c-3.848,0-6.553,1.563-6.854,4.93h-6.854c0.481-7.996,7.275-10.342,14.128-10.342
	c6.072,0,12.445,2.465,12.445,9.02V324.011z M243.442,315.355c-2.104,1.383-5.411,1.322-8.417,1.863
	c-2.946,0.48-5.591,1.563-5.591,5.17c0,3.066,3.908,3.969,6.313,3.969c3.006,0,7.695-1.563,7.695-5.893V315.355z"/>
<path fill="#050505" d="M275.07,288h7.936l19.599,31.623h0.12V288h7.154v42.926h-7.936l-19.539-31.563h-0.18v31.563h-7.154V288z"/>
<path fill="#050505" d="M323.168,317.158c0,4.871,2.645,9.199,8.356,9.199c3.968,0,6.373-1.744,7.575-5.17h6.493
	c-1.503,6.793-7.274,10.58-14.068,10.58c-9.739,0-15.21-6.793-15.21-16.352c0-8.838,5.771-16.414,15.03-16.414
	c9.799,0,15.811,8.838,14.669,18.156H323.168z M339.16,312.65c-0.241-4.33-3.187-8.236-7.815-8.236c-4.75,0-7.996,3.607-8.176,8.236
	H339.16z"/>
<path fill="#050505" d="M378.542,330.925h-6.733v-4.328h-0.12c-1.684,3.127-5.411,5.17-8.838,5.17
	c-8.116,0-11.603-4.088-11.603-12.203v-19.721h6.854v19.059c0,5.471,2.225,7.455,5.952,7.455c5.711,0,7.635-3.668,7.635-8.477
	v-18.037h6.854V330.925z"/>
<path fill="#050505" d="M391.109,317.158c0,4.871,2.645,9.199,8.355,9.199c3.969,0,6.373-1.744,7.576-5.17h6.492
	c-1.502,6.793-7.273,10.58-14.068,10.58c-9.738,0-15.209-6.793-15.209-16.352c0-8.838,5.771-16.414,15.029-16.414
	c9.799,0,15.811,8.838,14.67,18.156H391.109z M407.1,312.65c-0.24-4.33-3.186-8.236-7.814-8.236c-4.75,0-7.996,3.607-8.176,8.236
	H407.1z"/>
<path fill="#050505" d="M456.043,299.484c-0.301-3.428-2.586-5.771-6.133-5.771c-7.455,0-8.297,8.896-8.717,14.428l0.119,0.121
	c1.865-3.307,5.352-4.99,9.078-4.99c8.357,0,13.287,6.072,13.287,14.127c0,8.178-5.592,14.369-14.008,14.369
	c-12.385,0-15.33-9.738-15.33-22.004c0-10.039,3.967-21.764,15.871-21.764c6.674,0,12.324,4.631,12.686,11.484H456.043z
	 M456.824,317.279c0-4.51-2.465-8.598-7.395-8.598c-4.99,0-7.576,3.969-7.576,8.598c0,4.568,2.586,8.777,7.576,8.777
	C454.359,326.056,456.824,321.787,456.824,317.279z"/>
<path fill="#050505" d="M473.119,288.841h21.764v6.133H478.23l-2.164,10.701l0.119,0.121c1.863-2.045,4.93-3.188,7.756-3.188
	c8.357,0,13.166,6.012,13.166,14.068c0,6.734-4.209,15.09-14.549,15.09c-8.115,0-14.428-4.389-14.729-12.805h6.854
	c0.42,4.508,3.307,7.094,7.754,7.094c5.832,0,7.816-4.148,7.816-9.258c0-4.631-2.465-8.777-7.996-8.777
	c-2.885,0-5.711,0.9-6.793,3.848h-6.854L473.119,288.841z"/>
<path fill="#050505" d="M520.318,288h10.58l11.844,33.607h0.121L554.406,288h10.459v42.926h-7.152V297.8h-0.121l-11.904,33.125
	h-6.191L527.592,297.8h-0.119v33.125h-7.154V288z"/>
<path fill="#050505" d="M578.277,317.158c0,4.871,2.646,9.199,8.357,9.199c3.967,0,6.373-1.744,7.574-5.17h6.494
	c-1.504,6.793-7.275,10.58-14.068,10.58c-9.74,0-15.211-6.793-15.211-16.352c0-8.838,5.771-16.414,15.029-16.414
	c9.801,0,15.813,8.838,14.67,18.156H578.277z M594.27,312.65c-0.24-4.33-3.186-8.236-7.816-8.236c-4.748,0-7.994,3.607-8.176,8.236
	H594.27z"/>
<path fill="#050505" d="M635.635,330.925h-6.492v-4.207h-0.121c-1.803,3.547-5.711,5.049-9.619,5.049
	c-9.799,0-14.549-7.273-14.549-16.592c0-11.244,6.674-16.174,13.467-16.174c3.908,0,8.236,1.443,10.34,4.871h0.121V288h6.854
	V330.925z M620.305,326.357c6.133,0,8.717-5.592,8.717-11.002c0-6.854-3.307-10.941-8.598-10.941c-6.432,0-8.717,5.711-8.717,11.303
	C611.707,321.066,614.354,326.357,620.305,326.357z"/>
<path fill="#050505" d="M643.271,288h6.855v6.494h-6.855V288z M643.271,299.843h6.855v31.082h-6.855V299.843z"/>
<path fill="#050505" d="M684.877,330.925h-6.734v-4.328h-0.119c-1.684,3.127-5.412,5.17-8.838,5.17
	c-8.117,0-11.604-4.088-11.604-12.203v-19.721h6.854v19.059c0,5.471,2.225,7.455,5.953,7.455c5.711,0,7.635-3.668,7.635-8.477
	v-18.037h6.854V330.925z"/>
<path fill="#050505" d="M692.094,299.843h6.492v4.33h0.18c2.045-3.066,4.631-5.172,9.561-5.172c3.787,0,7.334,1.623,8.717,5.172
	c2.285-3.188,5.23-5.172,9.738-5.172c6.555,0,10.402,2.887,10.402,10.461v21.463h-6.854v-18.156c0-4.93-0.301-8.355-5.652-8.355
	c-4.629,0-6.613,3.066-6.613,8.297v18.215h-6.854v-19.959c0-4.27-1.322-6.553-5.471-6.553c-3.547,0-6.793,2.885-6.793,8.055v18.457
	h-6.854V299.843z"/>
<path fill="#050505" d="M0.902,360h9.438v16.473h17.375V360h9.439v42.926h-9.439V384.41H10.34v18.516H0.902V360z"/>
<path fill="#050505" d="M51.586,389.458c0.241,5.412,2.886,7.877,7.635,7.877c3.427,0,6.192-2.105,6.733-4.029h7.515
	c-2.405,7.336-7.515,10.461-14.549,10.461c-9.8,0-15.872-6.732-15.872-16.352c0-9.318,6.433-16.414,15.872-16.414
	c10.581,0,15.691,8.898,15.09,18.457H51.586z M65.474,384.048c-0.781-4.328-2.645-6.613-6.793-6.613
	c-5.411,0-6.974,4.209-7.094,6.613H65.474z"/>
<path fill="#050505" d="M79.304,360h8.537v42.926h-8.537V360z"/>
<path fill="#050505" d="M111.77,402.925h-9.499L91.63,371.843h8.958l6.553,21.223h0.12l6.553-21.223h8.477L111.77,402.925z"/>
<path fill="#050505" d="M132.874,389.458c0.241,5.412,2.886,7.877,7.635,7.877c3.427,0,6.192-2.105,6.733-4.029h7.515
	c-2.405,7.336-7.515,10.461-14.549,10.461c-9.8,0-15.872-6.732-15.872-16.352c0-9.318,6.433-16.414,15.872-16.414
	c10.581,0,15.691,8.898,15.09,18.457H132.874z M146.761,384.048c-0.781-4.328-2.645-6.613-6.793-6.613
	c-5.411,0-6.974,4.209-7.094,6.613H146.761z"/>
<path fill="#050505" d="M171.172,371.843h6.252v5.713h-6.252v15.391c0,2.885,0.722,3.605,3.607,3.605
	c0.902,0,1.743-0.059,2.645-0.24v6.674c-1.443,0.24-3.307,0.301-4.99,0.301c-5.23,0-9.8-1.203-9.8-7.395v-18.336h-5.17v-5.713h5.17
	v-9.318h8.537V371.843z"/>
<path fill="#050505" d="M190.292,367.035h-8.537V360h8.537V367.035z M181.755,371.843h8.537v31.082h-8.537V371.843z"/>
<path fill="#050505" d="M218.188,382.787c-0.541-3.488-2.766-5.352-6.313-5.352c-5.471,0-7.275,5.531-7.275,10.1
	c0,4.449,1.744,9.801,7.094,9.801c3.968,0,6.252-2.525,6.793-6.313h8.236c-1.082,8.236-6.793,12.744-14.97,12.744
	c-9.378,0-15.691-6.613-15.691-15.932c0-9.68,5.771-16.834,15.872-16.834c7.334,0,14.068,3.848,14.609,11.785H218.188z"/>
<path fill="#050505" d="M231.177,381.404c0.481-7.996,7.635-10.402,14.609-10.402c6.192,0,13.647,1.383,13.647,8.838v16.172
	c0,2.826,0.3,5.652,1.082,6.914h-8.657c-0.301-0.961-0.541-1.984-0.601-3.006c-2.706,2.826-6.673,3.848-10.461,3.848
	c-5.892,0-10.581-2.945-10.581-9.318c0-7.033,5.291-8.717,10.581-9.439c5.23-0.781,10.1-0.6,10.1-4.088
	c0-3.666-2.525-4.207-5.531-4.207c-3.246,0-5.351,1.322-5.651,4.689H231.177z M250.896,387.716
	c-1.443,1.262-4.449,1.322-7.094,1.803c-2.645,0.541-5.05,1.443-5.05,4.568c0,3.188,2.465,3.969,5.23,3.969
	c6.673,0,6.914-5.291,6.914-7.154V387.716z"/>
<path fill="#050505" d="M283.666,360h9.378l17.916,28.799h0.121V360h8.837v42.926h-9.439l-17.855-28.736h-0.12v28.736h-8.837V360z"
	/>
<path fill="#050505" d="M334.35,389.458c0.241,5.412,2.886,7.877,7.635,7.877c3.427,0,6.192-2.105,6.733-4.029h7.515
	c-2.404,7.336-7.515,10.461-14.548,10.461c-9.8,0-15.872-6.732-15.872-16.352c0-9.318,6.433-16.414,15.872-16.414
	c10.581,0,15.691,8.898,15.09,18.457H334.35z M348.238,384.048c-0.782-4.328-2.646-6.613-6.794-6.613
	c-5.411,0-6.974,4.209-7.094,6.613H348.238z"/>
<path fill="#050505" d="M390.984,402.925h-8.115v-4.328h-0.18c-2.166,3.486-5.893,5.17-9.5,5.17
	c-9.078,0-11.363-5.109-11.363-12.805v-19.119h8.537v17.555c0,5.111,1.503,7.637,5.471,7.637c4.63,0,6.613-2.586,6.613-8.898
	v-16.293h8.537V402.925z"/>
<path fill="#050505" d="M404.514,389.458c0.24,5.412,2.887,7.877,7.637,7.877c3.426,0,6.191-2.105,6.732-4.029h7.516
	c-2.406,7.336-7.516,10.461-14.549,10.461c-9.801,0-15.873-6.732-15.873-16.352c0-9.318,6.434-16.414,15.873-16.414
	c10.58,0,15.691,8.898,15.09,18.457H404.514z M418.402,384.048c-0.781-4.328-2.646-6.613-6.793-6.613
	c-5.412,0-6.975,4.209-7.096,6.613H418.402z"/>
<path fill="#050505" d="M476.541,368.177c-8.838,7.695-13.646,23.506-13.768,34.748h-9.137c0.961-12.443,6.131-24.529,14.127-34.148
	h-19.959v-7.936h28.736V368.177z"/>
<path fill="#050505" d="M508.949,367.876h-17.375l-1.684,9.559l0.121,0.121c2.283-2.346,4.93-3.248,8.236-3.248
	c8.297,0,12.986,6.434,12.986,14.309c0,8.658-7.154,15.332-15.633,15.15c-8.176,0-15.51-4.508-15.631-13.346h8.537
	c0.422,3.727,3.188,6.313,6.914,6.313c4.449,0,7.275-3.908,7.275-8.117c0-4.389-2.707-7.875-7.275-7.875
	c-3.066,0-4.75,1.082-6.432,3.367h-7.695l4.146-23.268h23.508V367.876z"/>
<path fill="#050505" d="M533.182,360h20.201c8.176,0,13.707,2.646,13.707,10.643c0,4.207-2.105,7.154-5.832,8.957
	c5.23,1.504,7.875,5.531,7.875,10.883c0,8.717-7.395,12.443-15.15,12.443h-20.801V360z M542.621,377.375h9.559
	c3.307,0,5.771-1.502,5.771-5.109c0-4.088-3.127-4.93-6.492-4.93h-8.838V377.375z M542.621,395.591h10.1
	c3.729,0,6.975-1.203,6.975-5.652c0-4.389-2.766-6.131-6.795-6.131h-10.279V395.591z"/>
<path fill="#050505" d="M589.697,371.001c9.799,0,16.111,6.494,16.111,16.414c0,9.859-6.313,16.352-16.111,16.352
	c-9.74,0-16.053-6.492-16.053-16.352C573.645,377.496,579.957,371.001,589.697,371.001z M589.697,397.335
	c5.832,0,7.574-4.99,7.574-9.92c0-4.99-1.742-9.98-7.574-9.98c-5.771,0-7.516,4.99-7.516,9.98
	C582.182,392.345,583.926,397.335,589.697,397.335z"/>
<path fill="#050505" d="M611.584,360h8.537v42.926h-8.537V360z"/>
<path fill="#050505" d="M649.039,398.958h-0.119c-1.984,3.365-5.471,4.809-9.439,4.809c-9.379,0-13.947-8.057-13.947-16.652
	c0-8.357,4.629-16.113,13.768-16.113c3.666,0,7.273,1.564,9.197,4.631h0.121V360h8.537v42.926h-8.117V398.958z M641.584,377.435
	c-5.59,0-7.514,4.809-7.514,9.92c0,4.869,2.225,9.98,7.514,9.98c5.652,0,7.336-4.93,7.336-10.041
	C648.92,382.244,647.115,377.435,641.584,377.435z"/>
<path fill="#050505" d="M0.481,432h11.182v15.633h14.729V432h11.182v42.926H26.393v-17.674H11.663v17.674H0.481V432z"/>
<path fill="#050505" d="M53.45,461.82c0.181,4.268,2.646,7.094,6.974,7.094c2.465,0,4.87-1.143,5.832-3.426h9.559
	c-1.864,7.213-8.537,10.34-15.511,10.34c-10.16,0-17.074-6.133-17.074-16.594c0-9.559,7.635-16.412,16.833-16.412
	c11.182,0,16.773,8.416,16.292,18.998H53.45z M66.135,456.109c-0.181-3.488-2.646-6.373-6.072-6.373
	c-3.607,0-6.012,2.584-6.613,6.373H66.135z"/>
<path fill="#050505" d="M81.83,432h10.22v42.926H81.83V432z"/>
<path fill="#050505" d="M117.842,474.925h-11.784l-10.4-31.201h10.641l5.711,20.621h0.12l5.771-20.621h10.401L117.842,474.925z"/>
<path fill="#050505" d="M140.269,461.82c0.181,4.268,2.646,7.094,6.974,7.094c2.465,0,4.87-1.143,5.832-3.426h9.559
	c-1.864,7.213-8.537,10.34-15.511,10.34c-10.161,0-17.074-6.133-17.074-16.594c0-9.559,7.635-16.412,16.833-16.412
	c11.182,0,16.773,8.416,16.292,18.998H140.269z M152.954,456.109c-0.181-3.488-2.646-6.373-6.072-6.373
	c-3.607,0-6.012,2.584-6.613,6.373H152.954z"/>
<path fill="#050505" d="M187.104,450.337h-6.313v14.188c0,2.465,1.443,3.006,3.667,3.006c0.842,0,1.743-0.119,2.645-0.119v7.514
	c-1.864,0.061-3.727,0.301-5.591,0.301c-8.717,0-10.942-2.525-10.942-11.002v-13.887h-5.17v-6.613h5.17v-9.439h10.22v9.439h6.313
	V450.337z"/>
<path fill="#050505" d="M202.256,439.816h-10.22V432h10.22V439.816z M192.036,443.724h10.22v31.201h-10.22V443.724z"/>
<path fill="#050505" d="M229.792,455.146c-0.06-2.645-2.405-4.508-4.99-4.508c-5.711,0-6.613,4.869-6.613,9.197
	c0,4.027,1.744,8.176,6.072,8.176c3.547,0,5.351-2.043,5.832-5.35h9.92c-0.902,8.355-7.395,13.166-15.691,13.166
	c-9.378,0-16.353-6.434-16.353-15.992c0-9.92,6.313-17.014,16.353-17.014c7.755,0,14.669,4.088,15.391,12.324H229.792z"/>
<path fill="#050505" d="M244.704,453.343c0.181-4.088,2.104-6.734,4.87-8.357c2.766-1.563,6.373-2.164,9.92-2.164
	c7.395,0,14.549,1.623,14.549,10.461v13.646c0,2.646,0,5.531,1.203,7.996h-10.281c-0.36-0.961-0.481-1.924-0.601-2.945
	c-2.645,2.766-6.553,3.848-10.28,3.848c-5.952,0-10.641-3.006-10.641-9.439c0-10.16,11.062-9.379,18.156-10.82
	c1.744-0.361,2.706-0.963,2.706-2.887c0-2.344-2.826-3.246-4.93-3.246c-2.826,0-4.629,1.262-5.11,3.908H244.704z M257.931,469.515
	c4.87,0,6.493-2.766,6.252-9.199c-1.443,0.902-4.088,1.082-6.313,1.684c-2.285,0.541-4.208,1.504-4.208,3.969
	C253.662,468.494,255.646,469.515,257.931,469.515z"/>
<path fill="#050505" d="M300.018,432h11.483l14.91,26.453h0.12V432h10.521v42.926h-11.483l-14.91-26.752h-0.12v26.752h-10.521V432z"
	/>
<path fill="#050505" d="M352.987,461.82c0.181,4.268,2.646,7.094,6.974,7.094c2.465,0,4.87-1.143,5.832-3.426h9.559
	c-1.863,7.213-8.537,10.34-15.511,10.34c-10.16,0-17.074-6.133-17.074-16.594c0-9.559,7.635-16.412,16.833-16.412
	c11.183,0,16.773,8.416,16.292,18.998H352.987z M365.672,456.109c-0.181-3.488-2.646-6.373-6.072-6.373
	c-3.607,0-6.012,2.584-6.613,6.373H365.672z"/>
<path fill="#050505" d="M412.027,474.925h-9.92v-4.268h-0.121c-1.924,3.186-5.891,5.17-9.498,5.17
	c-8.957,0-11.543-5.17-11.543-13.346v-18.758h10.221v18.096c0,4.148,1.803,5.592,5.049,5.592c2.225,0,5.592-1.443,5.592-6.975
	v-16.713h10.221V474.925z"/>
<path fill="#050505" d="M427.602,461.82c0.18,4.268,2.645,7.094,6.973,7.094c2.465,0,4.869-1.143,5.832-3.426h9.559
	c-1.863,7.213-8.537,10.34-15.51,10.34c-10.16,0-17.074-6.133-17.074-16.594c0-9.559,7.635-16.412,16.834-16.412
	c11.182,0,16.771,8.416,16.291,18.998H427.602z M440.285,456.109c-0.18-3.488-2.645-6.373-6.07-6.373
	c-3.607,0-6.014,2.584-6.613,6.373H440.285z"/>
<path fill="#050505" d="M480.932,452.681v-0.119c-4.029-0.963-6.254-4.51-6.254-8.537c0-8.297,8.537-11.543,15.572-11.543
	c7.154,0,15.391,3.246,15.391,11.602c0,3.789-2.346,7.637-6.193,8.479v0.119c4.811,0.963,7.877,4.629,7.877,9.92
	c0,9.258-8.838,12.865-17.135,12.865c-8.236,0-17.314-3.066-17.314-12.865C472.875,457.732,476.121,453.523,480.932,452.681z
	 M483.096,462.06c0,4.148,3.426,5.893,7.033,5.893c3.486,0,6.975-1.623,6.975-5.893c0-3.848-3.066-6.012-6.914-6.012
	C486.521,456.048,483.096,457.972,483.096,462.06z M483.756,444.806c0,3.727,3.248,4.93,6.373,4.93c3.006,0,6.434-1.322,6.434-4.93
	c0-3.428-3.127-4.811-6.434-4.811C486.762,439.996,483.756,441.32,483.756,444.806z"/>
<path fill="#050505" d="M520.553,461.939c0.061,3.307,3.666,5.23,6.732,5.23c3.969,0,6.975-2.645,6.975-6.732
	s-2.404-6.914-6.613-6.914c-2.887,0-5.051,0.662-6.674,3.188h-9.258l4.088-23.688h26.453v8.656h-18.578l-1.563,7.635h0.121
	c2.104-2.043,4.988-3.006,8.176-3.006c8.598,0,14.068,4.93,14.068,13.648c0,10.34-7.455,15.51-17.195,15.51
	c-9.137,0-16.352-3.486-16.953-13.527H520.553z"/>
<path fill="#050505" d="M569.553,432h11.184v15.633h14.729V432h11.182v42.926h-11.182v-17.674h-14.729v17.674h-11.184V432z"/>
<path fill="#050505" d="M622.523,461.82c0.18,4.268,2.645,7.094,6.973,7.094c2.465,0,4.869-1.143,5.832-3.426h9.559
	c-1.863,7.213-8.537,10.34-15.51,10.34c-10.16,0-17.074-6.133-17.074-16.594c0-9.559,7.635-16.412,16.834-16.412
	c11.182,0,16.771,8.416,16.291,18.998H622.523z M635.207,456.109c-0.18-3.488-2.645-6.373-6.07-6.373
	c-3.607,0-6.014,2.584-6.613,6.373H635.207z"/>
<path fill="#050505" d="M650.121,453.343c0.18-4.088,2.104-6.734,4.869-8.357c2.766-1.563,6.373-2.164,9.92-2.164
	c7.395,0,14.549,1.623,14.549,10.461v13.646c0,2.646,0,5.531,1.203,7.996h-10.281c-0.361-0.961-0.48-1.924-0.602-2.945
	c-2.645,2.766-6.553,3.848-10.279,3.848c-5.953,0-10.643-3.006-10.643-9.439c0-10.16,11.063-9.379,18.156-10.82
	c1.744-0.361,2.707-0.963,2.707-2.887c0-2.344-2.826-3.246-4.932-3.246c-2.824,0-4.629,1.262-5.109,3.908H650.121z M663.348,469.515
	c4.869,0,6.492-2.766,6.252-9.199c-1.443,0.902-4.088,1.082-6.313,1.684c-2.285,0.541-4.209,1.504-4.209,3.969
	C659.078,468.494,661.063,469.515,663.348,469.515z"/>
<path fill="#050505" d="M704.771,474.925h-11.783l-10.4-31.201h10.641l5.711,20.621h0.121l5.771-20.621h10.4L704.771,474.925z"/>
<path fill="#050505" d="M735.494,477.691c-2.465,6.854-6.131,7.695-13.045,7.695h-4.811v-8.297h3.547c2.346,0,4.09-1.322,4.09-3.486
	c0-1.684-1.984-6.492-2.586-8.176l-8.057-21.703h10.822l5.891,20.32h0.121l5.893-20.32h10.461L735.494,477.691z"/>
<path fill="#050505" d="M0.18,504h13.227v14.91h12.384V504h13.227v42.926H25.791v-17.014H13.407v17.014H0.18V504z"/>
<path fill="#050505" d="M55.674,534c0.3,3.547,2.345,6.072,6.072,6.072c1.924,0,4.028-0.721,4.99-2.225h11.122
	c-2.405,6.734-8.958,9.859-16.052,9.859c-9.979,0-17.495-5.891-17.495-16.291c0-9.078,6.613-16.473,16.473-16.473
	c12.385,0,17.735,6.912,17.735,19.057H55.674z M67.097,527.808c0-2.887-2.164-5.23-5.23-5.23c-3.547,0-5.591,1.863-6.132,5.23
	H67.097z"/>
<path fill="#050505" d="M83.752,504h11.904v42.926H83.752V504z"/>
<path fill="#050505" d="M122.891,546.925h-14.068l-10.22-31.201h12.565l4.87,18.998h0.12l4.93-18.998h12.145L122.891,546.925z"/>
<path fill="#050505" d="M145.92,534c0.3,3.547,2.345,6.072,6.072,6.072c1.924,0,4.028-0.721,4.99-2.225h11.122
	c-2.405,6.734-8.958,9.859-16.052,9.859c-9.979,0-17.495-5.891-17.495-16.291c0-9.078,6.613-16.473,16.473-16.473
	c12.385,0,17.735,6.912,17.735,19.057H145.92z M157.343,527.808c0-2.887-2.164-5.23-5.23-5.23c-3.547,0-5.591,1.863-6.132,5.23
	H157.343z"/>
<path fill="#050505" d="M188.067,515.724h6.373v7.334h-6.373v10.881c0,2.887,0.661,4.148,3.667,4.148
	c0.902,0,1.804-0.059,2.706-0.18v9.018c-2.405,0-5.11,0.361-7.635,0.361c-5.05,0-10.641-0.781-10.641-9.318v-14.91h-5.291v-7.334
	h5.291v-9.5h11.904V515.724z"/>
<path fill="#050505" d="M210.373,512.357h-11.904V504h11.904V512.357z M198.469,515.724h11.904v31.201h-11.904V515.724z"/>
<path fill="#050505" d="M237.308,527.568c-0.121-1.264-0.541-2.285-1.323-2.947c-0.722-0.66-1.744-1.021-3.006-1.021
	c-4.569,0-5.23,3.969-5.23,7.756s0.661,7.695,5.23,7.695c2.585,0,4.389-2.104,4.629-4.568h11.363
	c-1.143,8.477-7.815,13.225-16.232,13.225c-9.378,0-16.894-6.492-16.894-16.352s7.515-16.412,16.894-16.412
	c8.176,0,15.15,4.027,15.872,12.625H237.308z"/>
<path fill="#050505" d="M284.324,539.953c0,2.344,0.12,4.988,1.443,6.973h-12.144c-0.301-0.842-0.481-2.104-0.421-2.945h-0.12
	c-2.525,2.885-6.192,3.727-10.04,3.727c-6.012,0-11.002-2.885-11.002-9.438c0-9.859,11.543-9.5,17.615-10.643
	c1.624-0.299,3.247-0.781,3.247-2.764c0-2.105-1.984-2.887-3.908-2.887c-3.667,0-4.389,1.863-4.449,3.186h-11.062
	c0.361-8.777,8.657-10.219,16.052-10.219c14.91,0,14.79,6.191,14.79,12.203V539.953z M272.901,532.917
	c-1.443,0.723-3.066,1.143-4.689,1.504c-2.646,0.602-4.028,1.262-4.028,3.365c0,1.443,1.563,2.887,3.728,2.887
	c2.705,0,4.81-1.623,4.99-4.869V532.917z"/>
<path fill="#050505" d="M310.961,504h13.527l12.505,22.967h0.121V504h12.505v42.926h-12.866l-13.167-23.445h-0.12v23.445h-12.505
	V504z"/>
<path fill="#050505" d="M366.395,534c0.301,3.547,2.345,6.072,6.072,6.072c1.924,0,4.028-0.721,4.99-2.225h11.123
	c-2.406,6.734-8.959,9.859-16.052,9.859c-9.98,0-17.495-5.891-17.495-16.291c0-9.078,6.613-16.473,16.473-16.473
	c12.385,0,17.735,6.912,17.735,19.057H366.395z M377.818,527.808c0-2.887-2.164-5.23-5.23-5.23c-3.547,0-5.591,1.863-6.132,5.23
	H377.818z"/>
<path fill="#050505" d="M426.697,546.925h-11.482v-3.967h-0.119c-2.225,3.125-5.412,4.748-10.16,4.748
	c-5.592,0-10.703-3.426-10.703-10.58v-21.402h11.904v16.352c0,3.607,0.422,6.133,3.908,6.133c2.043,0,4.75-1.021,4.75-6.012v-16.473
	h11.902V546.925z"/>
<path fill="#050505" d="M443.234,534c0.301,3.547,2.344,6.072,6.072,6.072c1.924,0,4.027-0.721,4.99-2.225h11.121
	c-2.404,6.734-8.957,9.859-16.051,9.859c-9.98,0-17.496-5.891-17.496-16.291c0-9.078,6.613-16.473,16.473-16.473
	c12.385,0,17.736,6.912,17.736,19.057H443.234z M454.656,527.808c0-2.887-2.164-5.23-5.23-5.23c-3.547,0-5.59,1.863-6.131,5.23
	H454.656z"/>
<path fill="#050505" d="M501.795,535.923c0.24,0.902,0.963,1.744,1.863,2.225c0.963,0.48,2.045,0.602,2.887,0.602
	c5.41,0,6.854-4.99,7.516-8.416l-0.121-0.121c-2.645,2.285-5.832,3.307-9.379,3.307c-8.176,0-14.188-4.689-14.188-13.287
	c0-10.16,8.115-15.631,17.615-15.631c12.264,0,17.615,9.379,17.615,19.9c0,13.285-6.254,22.904-19.059,22.904
	c-7.756,0-14.43-3.246-15.752-11.482H501.795z M501.436,519.873c0,3.246,2.885,5.65,6.012,5.65c3.246,0,6.012-2.225,6.012-5.592
	c0-3.307-2.586-5.83-5.893-5.83C504.381,514.101,501.436,516.566,501.436,519.873z"/>
<path fill="#050505" d="M563.48,515.302h-19.479l-1.201,5.531l0.119,0.121c2.586-1.924,6.012-2.465,9.139-2.465
	c7.455,0,13.646,4.328,13.646,14.188c0,8.477-6.672,14.729-18.756,14.729c-15.451,0-18.277-9.498-17.916-13.646h11.844
	c0.24,1.082,0.842,2.104,1.684,2.766c1.201,0.963,2.885,1.383,4.748,1.383c3.488,0,6.373-2.285,6.373-5.592
	c0-3.666-2.404-5.83-6.012-5.83c-2.826,0-4.811,0.781-6.072,2.705h-11.182l4.328-24.109h28.736V515.302z"/>
<path fill="#050505" d="M591.742,504h23.508c11.303,0,13.707,6.373,13.707,10.762c0,4.33-2.104,6.674-5.291,8.418
	c3.848,1.322,7.455,4.389,7.455,10.701c0,8.596-7.455,13.045-15.029,13.045h-24.35V504z M604.969,520.714h6.975
	c2.766,0,4.508-0.783,4.508-3.547c0-2.166-1.803-2.947-4.508-2.947h-6.975V520.714z M604.969,536.705h7.756
	c2.766,0,5.17-0.781,5.17-4.088c0-2.525-1.502-3.906-4.629-3.906h-8.297V536.705z"/>
<path fill="#050505" d="M636.355,504h11.904v42.926h-11.904V504z"/>
<path fill="#050505" d="M685.475,539.953c0,2.344,0.119,4.988,1.443,6.973h-12.145c-0.301-0.842-0.482-2.104-0.422-2.945h-0.119
	c-2.525,2.885-6.193,3.727-10.041,3.727c-6.012,0-11.002-2.885-11.002-9.438c0-9.859,11.543-9.5,17.615-10.643
	c1.623-0.299,3.246-0.781,3.246-2.764c0-2.105-1.982-2.887-3.906-2.887c-3.668,0-4.389,1.863-4.449,3.186h-11.063
	c0.361-8.777,8.656-10.219,16.053-10.219c14.908,0,14.789,6.191,14.789,12.203V539.953z M674.051,532.917
	c-1.441,0.723-3.066,1.143-4.689,1.504c-2.645,0.602-4.027,1.262-4.027,3.365c0,1.443,1.563,2.887,3.727,2.887
	c2.707,0,4.811-1.623,4.99-4.869V532.917z"/>
<path fill="#050505" d="M711.93,527.568c-0.119-1.264-0.541-2.285-1.322-2.947c-0.721-0.66-1.744-1.021-3.006-1.021
	c-4.568,0-5.23,3.969-5.23,7.756s0.662,7.695,5.23,7.695c2.586,0,4.389-2.104,4.629-4.568h11.363
	c-1.143,8.477-7.816,13.225-16.232,13.225c-9.379,0-16.895-6.492-16.895-16.352s7.516-16.412,16.895-16.412
	c8.176,0,15.15,4.027,15.871,12.625H711.93z"/>
<path fill="#050505" d="M728.766,504h11.904v20.742l7.574-9.018h13.467l-11.121,11.783l12.865,19.418h-14.309l-6.373-11.303
	l-2.104,2.285v9.018h-11.904V504z"/>
</svg>